<?xml version="1.0" encoding="UTF-8" standalone="no"?>
<!-- Created with Inkscape (http://www.inkscape.org/) -->

<svg
   xmlns:dc="http://purl.org/dc/elements/1.1/"
   xmlns:cc="http://creativecommons.org/ns#"
   xmlns:rdf="http://www.w3.org/1999/02/22-rdf-syntax-ns#"
   xmlns:svg="http://www.w3.org/2000/svg"
   xmlns="http://www.w3.org/2000/svg"
   xmlns:sodipodi="http://sodipodi.sourceforge.net/DTD/sodipodi-0.dtd"
   xmlns:inkscape="http://www.inkscape.org/namespaces/inkscape"
   width="22"
   height="30"
   viewBox="0 0 5.8208332 7.9375002"
   version="1.1"
   id="svg8"
   inkscape:version="0.92.2 (5c3e80d, 2017-08-06)"
   sodipodi:docname="1 parfume.svg">
  <defs
     id="defs2" />
  <sodipodi:namedview
     id="base"
     pagecolor="#ffffff"
     bordercolor="#666666"
     borderopacity="1.0"
     inkscape:pageopacity="0.0"
     inkscape:pageshadow="2"
     inkscape:zoom="5.6"
     inkscape:cx="5.556618"
     inkscape:cy="2.3687463"
     inkscape:document-units="mm"
     inkscape:current-layer="layer1"
     showgrid="false"
     units="px"
     inkscape:window-width="2560"
     inkscape:window-height="1017"
     inkscape:window-x="-8"
     inkscape:window-y="73"
     inkscape:window-maximized="1" />
  <metadata
     id="metadata5">
    <rdf:RDF>
      <cc:Work
         rdf:about="">
        <dc:format>image/svg+xml</dc:format>
        <dc:type
           rdf:resource="http://purl.org/dc/dcmitype/StillImage" />
        <dc:title></dc:title>
      </cc:Work>
    </rdf:RDF>
  </metadata>
  <g
     inkscape:label="Layer 1"
     inkscape:groupmode="layer"
     id="layer1"
     transform="translate(0,-289.06248)">
    <g
       id="g11715"
       transform="matrix(0.01414374,0,0,0.01414374,-0.45588987,289.64604)"
       inkscape:export-xdpi="95.999977"
       inkscape:export-ydpi="95.999977">
      <g
         id="g11657">
        <g
           id="g11655">
          <path
             id="path11651"
             d="m 135.196,145.664 c 29.625,-9.333 83.509,-42.23 89.807,-78.353 18.787,-9.047 36.552,-14.126 57.446,-14.559 0.509,4.274 2.256,7.107 7.935,7.107 h 0.217 c 0,10.794 -8.833,10.299 -8.833,10.299 v 6.616 H 274.9 v 5.528 h -2.949 c -8.681,0 -15.701,7.025 -15.701,15.701 v 41.214 c 0,4.59 2.008,10.882 5.142,15.827 h -4.16 v 8.831 c 0,0 -38.272,-0.98 -42.198,28.458 -3.925,29.438 -45.14,261.024 -45.14,261.024 l 15.701,10.796 c 0,0 30.938,7.71 109.904,7.834 v 0.017 c 0.34,0 0.645,-0.009 0.981,-0.009 0.341,0 0.646,0.009 0.981,0.009 v -0.017 c 78.967,-0.14 109.908,-7.834 109.908,-7.834 l 15.701,-10.796 c 0,0 -41.217,-231.586 -45.14,-261.024 -3.928,-29.438 -42.198,-28.458 -42.198,-28.458 v -8.831 h -4.172 c 3.153,-4.945 5.153,-11.237 5.153,-15.827 V 98.003 c 0,-8.676 -7.029,-15.701 -15.701,-15.701 h -2.945 v -5.528 h -6.869 v -6.608 c 0,0 -8.828,0.487 -8.828,-10.299 h 0.204 c 8.985,0 8.136,-7.027 8.136,-15.701 V 31.4 C 310.71,23.297 304.606,2.959 296.487,0.298 288.36,2.959 282.26,23.297 282.26,31.4 v 5.663 c -20.931,0.413 -39.353,5.133 -58.013,13.358 -0.114,-0.437 -0.194,-0.877 -0.336,-1.31 C 210.434,6.382 130.416,9.984 95.864,20.875 61.308,31.761 39.499,60.258 52.962,102.989 c 13.463,42.729 47.677,53.561 82.234,42.675 z"
             inkscape:connector-curvature="0"
             style="fill:#ffffff" />
          <path
             id="path11653"
             d="m 294.725,0 c 0.597,0 1.182,0.11 1.755,0.298 C 297.057,0.11 297.638,0 298.23,0 Z"
             inkscape:connector-curvature="0"
             style="fill:#ffffff" />
        </g>
      </g>
      <g
         id="g11659" />
      <g
         id="g11661" />
      <g
         id="g11663" />
      <g
         id="g11665" />
      <g
         id="g11667" />
      <g
         id="g11669" />
      <g
         id="g11671" />
      <g
         id="g11673" />
      <g
         id="g11675" />
      <g
         id="g11677" />
      <g
         id="g11679" />
      <g
         id="g11681" />
      <g
         id="g11683" />
      <g
         id="g11685" />
      <g
         id="g11687" />
    </g>
  </g>
</svg>
