<?xml version="1.0" encoding="UTF-8" standalone="no"?>
<!-- Created with Inkscape (http://www.inkscape.org/) -->

<svg
   xmlns:dc="http://purl.org/dc/elements/1.1/"
   xmlns:cc="http://creativecommons.org/ns#"
   xmlns:rdf="http://www.w3.org/1999/02/22-rdf-syntax-ns#"
   xmlns:svg="http://www.w3.org/2000/svg"
   xmlns="http://www.w3.org/2000/svg"
   xmlns:sodipodi="http://sodipodi.sourceforge.net/DTD/sodipodi-0.dtd"
   xmlns:inkscape="http://www.inkscape.org/namespaces/inkscape"
   width="22"
   height="30"
   viewBox="0 0 5.8208332 7.9375002"
   version="1.1"
   id="svg8"
   inkscape:version="0.92.2 (5c3e80d, 2017-08-06)"
   sodipodi:docname="3 france.svg">
  <defs
     id="defs2" />
  <sodipodi:namedview
     id="base"
     pagecolor="#ffffff"
     bordercolor="#666666"
     borderopacity="1.0"
     inkscape:pageopacity="0.0"
     inkscape:pageshadow="2"
     inkscape:zoom="5.6"
     inkscape:cx="5.556618"
     inkscape:cy="2.3687463"
     inkscape:document-units="mm"
     inkscape:current-layer="layer1"
     showgrid="false"
     units="px"
     inkscape:window-width="2560"
     inkscape:window-height="1017"
     inkscape:window-x="-8"
     inkscape:window-y="73"
     inkscape:window-maximized="1" />
  <metadata
     id="metadata5">
    <rdf:RDF>
      <cc:Work
         rdf:about="">
        <dc:format>image/svg+xml</dc:format>
        <dc:type
           rdf:resource="http://purl.org/dc/dcmitype/StillImage" />
        <dc:title></dc:title>
      </cc:Work>
    </rdf:RDF>
  </metadata>
  <g
     inkscape:label="Layer 1"
     inkscape:groupmode="layer"
     id="layer1"
     transform="translate(0,-289.06248)">
    <g
       id="g11928"
       transform="matrix(0.01377912,0,0,0.01377912,-0.64538411,289.59827)"
       inkscape:export-xdpi="95.999977"
       inkscape:export-ydpi="95.999977">
      <g
         id="g11868">
        <g
           id="g11866">
          <g
             id="g11864">
            <path
               id="path11858"
               d="m 288.06,76.459 c 0.107,-0.597 0.363,-1.152 0.363,-1.792 0,-2.752 -1.024,-5.248 -2.731,-7.125 L 266.663,29.483 V 10.667 C 266.663,4.779 261.884,0 255.996,0 250.108,0 245.329,4.779 245.329,10.667 V 29.483 L 225.126,69.91 c -0.043,0.085 -0.021,0.192 -0.064,0.277 -0.64,1.365 -1.067,2.88 -1.067,4.501 0,34.603 -2.496,66.368 -6.741,96 h 77.461 c -4.137,-29.12 -6.569,-60.331 -6.655,-94.229 z"
               inkscape:connector-curvature="0"
               style="fill:#ffffff" />
            <path
               id="path11860"
               d="M 445.991,495.104 433.618,478.016 C 413.074,449.707 391.058,418.901 370.386,384 h 13.611 c 5.888,0 10.667,-4.779 10.667,-10.667 0,-5.888 -4.779,-10.667 -10.667,-10.667 H 138.663 c -5.888,0 -10.667,4.779 -10.667,10.667 0,5.888 4.779,10.667 10.667,10.667 h 2.923 c -20.651,34.923 -42.688,65.707 -63.232,94.016 L 65.98,495.104 c -2.325,3.243 -2.645,7.552 -0.832,11.115 1.813,3.563 5.504,5.781 9.515,5.781 h 85.909 c 3.029,0 5.909,-1.301 7.957,-3.541 2.027,-2.261 2.987,-5.269 2.667,-8.299 -0.363,-3.115 -0.533,-6.293 -0.533,-9.493 0,-47.061 38.272,-85.333 85.333,-85.333 47.061,0 85.333,38.272 85.333,85.333 0,3.2 -0.171,6.379 -0.512,9.493 -0.341,3.029 0.64,6.016 2.667,8.299 2.027,2.24 4.907,3.541 7.957,3.541 h 85.909 c 4.011,0 7.659,-2.219 9.493,-5.781 1.836,-3.563 1.495,-7.872 -0.852,-11.115 z"
               inkscape:connector-curvature="0"
               style="fill:#ffffff" />
            <path
               id="path11862"
               d="m 216.316,341.333 18.901,-56.704 c 1.451,-4.352 5.525,-7.296 10.112,-7.296 h 21.333 c 4.587,0 8.661,2.944 10.112,7.296 l 18.901,56.704 h 51.307 c -18.219,-37.013 -33.557,-79.381 -44.181,-128 h 6.507 c 5.888,0 10.667,-4.779 10.667,-10.667 0,-5.888 -4.779,-10.666 -10.667,-10.666 H 202.663 c -5.888,0 -10.667,4.779 -10.667,10.667 0,5.888 4.779,10.667 10.667,10.667 h 6.507 c -10.603,48.619 -25.963,90.987 -44.181,128 h 51.327 z"
               inkscape:connector-curvature="0"
               style="fill:#ffffff" />
          </g>
        </g>
      </g>
      <g
         id="g11870" />
      <g
         id="g11872" />
      <g
         id="g11874" />
      <g
         id="g11876" />
      <g
         id="g11878" />
      <g
         id="g11880" />
      <g
         id="g11882" />
      <g
         id="g11884" />
      <g
         id="g11886" />
      <g
         id="g11888" />
      <g
         id="g11890" />
      <g
         id="g11892" />
      <g
         id="g11894" />
      <g
         id="g11896" />
      <g
         id="g11898" />
    </g>
  </g>
</svg>
