<?xml version="1.0" encoding="UTF-8" standalone="no"?>
<!-- Created with Inkscape (http://www.inkscape.org/) -->

<svg
   xmlns:dc="http://purl.org/dc/elements/1.1/"
   xmlns:cc="http://creativecommons.org/ns#"
   xmlns:rdf="http://www.w3.org/1999/02/22-rdf-syntax-ns#"
   xmlns:svg="http://www.w3.org/2000/svg"
   xmlns="http://www.w3.org/2000/svg"
   xmlns:sodipodi="http://sodipodi.sourceforge.net/DTD/sodipodi-0.dtd"
   xmlns:inkscape="http://www.inkscape.org/namespaces/inkscape"
   width="20"
   height="20"
   viewBox="0 0 5.2916665 5.2916669"
   version="1.1"
   id="svg8"
   inkscape:version="0.92.2 (5c3e80d, 2017-08-06)"
   sodipodi:docname="$ 20px.svg">
  <defs
     id="defs2" />
  <sodipodi:namedview
     id="base"
     pagecolor="#ffffff"
     bordercolor="#666666"
     borderopacity="1.0"
     inkscape:pageopacity="0.0"
     inkscape:pageshadow="2"
     inkscape:zoom="3.959798"
     inkscape:cx="54.603816"
     inkscape:cy="30.237381"
     inkscape:document-units="mm"
     inkscape:current-layer="g4907"
     showgrid="false"
     units="px"
     inkscape:window-width="2560"
     inkscape:window-height="1017"
     inkscape:window-x="-8"
     inkscape:window-y="73"
     inkscape:window-maximized="1"
     showguides="true"
     inkscape:guide-bbox="true"
     inkscape:snap-global="false" />
  <metadata
     id="metadata5">
    <rdf:RDF>
      <cc:Work
         rdf:about="">
        <dc:format>image/svg+xml</dc:format>
        <dc:type
           rdf:resource="http://purl.org/dc/dcmitype/StillImage" />
        <dc:title></dc:title>
      </cc:Work>
    </rdf:RDF>
  </metadata>
  <g
     inkscape:label="Layer 1"
     inkscape:groupmode="layer"
     id="layer1"
     transform="translate(0,-291.70831)">
    <g
       transform="matrix(1.3945943,0,0,1.3945943,492.67237,-578.52526)"
       style="opacity:0.45"
       id="g1052"
       inkscape:export-filename="D:\msvystunov\Ted a car\LOGOW4.png"
       inkscape:export-xdpi="90"
       inkscape:export-ydpi="90">
      <g
         transform="translate(23.54556,11.15316)"
         id="g1050">
        <g
           style="opacity:1"
           id="g4907"
           transform="matrix(0.41082905,0,0,0.41082905,583.392,1210.0467)"
           inkscape:export-xdpi="90"
           inkscape:export-ydpi="90">
          <g
             aria-label="0 $"
             style="font-style:normal;font-weight:normal;font-size:8.63825035px;line-height:1.25;font-family:sans-serif;letter-spacing:0px;word-spacing:0px;fill:#000000;fill-opacity:1;stroke:none;stroke-width:0.21595626"
             id="text4860">
            <path
               d="m -2330.3111,-1447.9214 q 0,0.7201 -0.5621,1.1985 -0.5621,0.4738 -1.4726,0.5621 v 1.6815 h -0.548 v -1.6583 q -0.6132,0 -1.1521,-0.1162 -0.5388,-0.1161 -0.9336,-0.2973 v -0.9197 h 0.073 q 0.088,0.065 0.316,0.1905 0.2275,0.1207 0.4413,0.1996 0.2414,0.088 0.562,0.1673 0.3251,0.073 0.6921,0.088 v -2.0114 q -0.1858,-0.038 -0.3437,-0.069 -0.1579,-0.038 -0.2927,-0.073 -0.7572,-0.1904 -1.087,-0.5715 -0.3298,-0.3855 -0.3298,-0.9475 0,-0.6875 0.539,-1.1613 0.5433,-0.4738 1.5142,-0.5528 v -1.2635 h 0.5481 v 1.2541 q 0.4692,0.011 0.9616,0.1116 0.4924,0.1024 0.8268,0.2369 v 0.9105 h -0.064 q -0.3484,-0.2137 -0.7293,-0.3764 -0.3762,-0.1671 -0.9941,-0.2089 v 2.002 q 0.1394,0.023 0.3021,0.065 0.1624,0.038 0.2833,0.061 0.6921,0.1487 1.0683,0.511 0.3809,0.3623 0.3809,0.9893 z m -2.5827,-1.7048 v -1.9186 q -0.497,0.038 -0.8361,0.2742 -0.3391,0.2323 -0.3391,0.6504 0,0.4226 0.2507,0.6364 0.2509,0.2137 0.9245,0.3576 z m 1.7048,1.8256 q 0,-0.4367 -0.2742,-0.6364 -0.2693,-0.2044 -0.8826,-0.3205 v 1.9231 q 0.5574,-0.056 0.8548,-0.2834 0.302,-0.2276 0.302,-0.6828 z"
               style="fill:#e6e6e6;stroke-width:0.23783478"
               id="path2077"
               inkscape:connector-curvature="0" />
          </g>
        </g>
      </g>
    </g>
    <flowRoot
       xml:space="preserve"
       id="flowRoot1078"
       style="font-style:normal;font-weight:normal;font-size:40px;line-height:1.25;font-family:sans-serif;letter-spacing:0px;word-spacing:0px;fill:#000000;fill-opacity:1;stroke:none"
       transform="matrix(0.26458333,0,0,0.26458333,0,163.38539)"><flowRegion
         id="flowRegion1080"><rect
           id="rect1082"
           width="2005.7142"
           height="851.42859"
           x="3142.8572"
           y="1196.4286" /></flowRegion><flowPara
         id="flowPara1084"></flowPara></flowRoot>    <flowRoot
       xml:space="preserve"
       id="flowRoot1088"
       style="font-style:normal;font-weight:normal;font-size:40px;line-height:1.25;font-family:sans-serif;letter-spacing:0px;word-spacing:0px;fill:#000000;fill-opacity:1;stroke:none"
       transform="matrix(0.26458333,0,0,0.26458333,0,163.38539)"><flowRegion
         id="flowRegion1090"><rect
           id="rect1092"
           width="97.14286"
           height="68.571426"
           x="6091.4287"
           y="1276.4286" /></flowRegion><flowPara
         id="flowPara1094"></flowPara></flowRoot>  </g>
</svg>
