<?xml version="1.0" encoding="UTF-8" standalone="no"?>
<!-- Created with Inkscape (http://www.inkscape.org/) -->

<svg
   xmlns:dc="http://purl.org/dc/elements/1.1/"
   xmlns:cc="http://creativecommons.org/ns#"
   xmlns:rdf="http://www.w3.org/1999/02/22-rdf-syntax-ns#"
   xmlns:svg="http://www.w3.org/2000/svg"
   xmlns="http://www.w3.org/2000/svg"
   xmlns:sodipodi="http://sodipodi.sourceforge.net/DTD/sodipodi-0.dtd"
   xmlns:inkscape="http://www.inkscape.org/namespaces/inkscape"
   width="43"
   height="43"
   viewBox="0 0 11.377083 11.377083"
   version="1.1"
   id="svg8"
   inkscape:version="0.92.2 (5c3e80d, 2017-08-06)"
   sodipodi:docname="facebook 40px.svg">
  <defs
     id="defs2" />
  <sodipodi:namedview
     id="base"
     pagecolor="#ffffff"
     bordercolor="#666666"
     borderopacity="1.0"
     inkscape:pageopacity="0.0"
     inkscape:pageshadow="2"
     inkscape:zoom="7.9195959"
     inkscape:cx="34.423717"
     inkscape:cy="25.525801"
     inkscape:document-units="mm"
     inkscape:current-layer="layer1"
     showgrid="false"
     units="px"
     inkscape:window-width="2560"
     inkscape:window-height="1017"
     inkscape:window-x="-8"
     inkscape:window-y="73"
     inkscape:window-maximized="1" />
  <metadata
     id="metadata5">
    <rdf:RDF>
      <cc:Work
         rdf:about="">
        <dc:format>image/svg+xml</dc:format>
        <dc:type
           rdf:resource="http://purl.org/dc/dcmitype/StillImage" />
        <dc:title></dc:title>
      </cc:Work>
    </rdf:RDF>
  </metadata>
  <g
     inkscape:label="Layer 1"
     inkscape:groupmode="layer"
     id="layer1"
     transform="translate(0,-285.6229)">
    <g
       id="g10668"
       transform="translate(-437.00837,-305.95893)">
      <g
         style="fill:#cccccc"
         transform="matrix(0.01033529,0,0,0.01033529,440.07542,594.6002)"
         id="g10664">
        <g
           style="fill:#cccccc"
           transform="translate(1,1)"
           id="g10632">
          <g
             style="fill:#cccccc"
             id="g10630">
            <path
               style="fill:#cccccc"
               inkscape:connector-curvature="0"
               d="M 468.333,-1 H 41.667 C 17.773,-1 -1,17.773 -1,41.667 V 468.334 C -1,492.227 17.773,511 41.667,511 h 196.267 102.4 128 C 492.227,511 511,492.227 511,468.333 V 41.667 C 511,17.773 492.227,-1 468.333,-1 Z M 255,493.933 V 323.267 H 186.733 V 255 H 255 v -59.733 c 0,-48.64 37.547,-89.6 85.333,-93.867 h 76.8 v 68.267 h -68.267 c -14.507,0 -25.6,11.093 -25.6,25.6 V 255 H 408.6 v 68.267 H 323.267 V 493.934 H 255 Z m 238.933,-25.6 c 0,14.507 -11.093,25.6 -25.6,25.6 h -128 v -153.6 h 85.333 v -102.4 h -85.333 v -42.667 c 0,-5.12 3.413,-8.533 8.533,-8.533 H 434.2 v -102.4 h -94.72 c -57.173,5.12 -101.547,53.76 -101.547,110.933 v 42.667 h -68.267 v 102.4 h 68.267 v 153.6 H 41.667 c -14.507,0 -25.6,-11.093 -25.6,-25.6 V 41.667 c 0,-14.507 11.093,-25.6 25.6,-25.6 h 426.667 c 14.507,0 25.6,11.093 25.6,25.6 v 426.666 z"
               id="path10628" />
          </g>
        </g>
        <g
           style="fill:#cccccc"
           id="g10634" />
        <g
           style="fill:#cccccc"
           id="g10636" />
        <g
           style="fill:#cccccc"
           id="g10638" />
        <g
           style="fill:#cccccc"
           id="g10640" />
        <g
           style="fill:#cccccc"
           id="g10642" />
        <g
           style="fill:#cccccc"
           id="g10644" />
        <g
           style="fill:#cccccc"
           id="g10646" />
        <g
           style="fill:#cccccc"
           id="g10648" />
        <g
           style="fill:#cccccc"
           id="g10650" />
        <g
           style="fill:#cccccc"
           id="g10652" />
        <g
           style="fill:#cccccc"
           id="g10654" />
        <g
           style="fill:#cccccc"
           id="g10656" />
        <g
           style="fill:#cccccc"
           id="g10658" />
        <g
           style="fill:#cccccc"
           id="g10660" />
        <g
           style="fill:#cccccc"
           id="g10662" />
      </g>
      <circle
         style="opacity:1;fill:none;fill-opacity:1;stroke:#b3b3b3;stroke-width:0.23965451;stroke-linecap:round;stroke-linejoin:round;stroke-miterlimit:4;stroke-dasharray:none;stroke-opacity:1"
         id="circle10666"
         cx="442.72125"
         cy="597.24603"
         r="5.427959" />
    </g>
  </g>
</svg>
