<?xml version="1.0" encoding="UTF-8" standalone="no"?>
<!-- Created with Inkscape (http://www.inkscape.org/) -->

<svg
   xmlns:dc="http://purl.org/dc/elements/1.1/"
   xmlns:cc="http://creativecommons.org/ns#"
   xmlns:rdf="http://www.w3.org/1999/02/22-rdf-syntax-ns#"
   xmlns:svg="http://www.w3.org/2000/svg"
   xmlns="http://www.w3.org/2000/svg"
   xmlns:sodipodi="http://sodipodi.sourceforge.net/DTD/sodipodi-0.dtd"
   xmlns:inkscape="http://www.inkscape.org/namespaces/inkscape"
   width="7.5mm"
   height="6mm"
   viewBox="0 0 7.5 6"
   version="1.1"
   id="svg8"
   inkscape:version="0.92.2 (5c3e80d, 2017-08-06)"
   sodipodi:docname="icon 3.svg">
  <defs
     id="defs2" />
  <sodipodi:namedview
     id="base"
     pagecolor="#ffffff"
     bordercolor="#666666"
     borderopacity="1.0"
     inkscape:pageopacity="0.0"
     inkscape:pageshadow="2"
     inkscape:zoom="7.9195959"
     inkscape:cx="52.566897"
     inkscape:cy="41.844439"
     inkscape:document-units="mm"
     inkscape:current-layer="layer1"
     showgrid="false"
     inkscape:window-width="2560"
     inkscape:window-height="1017"
     inkscape:window-x="-8"
     inkscape:window-y="73"
     inkscape:window-maximized="1" />
  <metadata
     id="metadata5">
    <rdf:RDF>
      <cc:Work
         rdf:about="">
        <dc:format>image/svg+xml</dc:format>
        <dc:type
           rdf:resource="http://purl.org/dc/dcmitype/StillImage" />
        <dc:title></dc:title>
      </cc:Work>
    </rdf:RDF>
  </metadata>
  <g
     inkscape:label="Layer 1"
     inkscape:groupmode="layer"
     id="layer1"
     transform="translate(0,-291)">
    <g
       id="g15569"
       transform="matrix(0.06633327,0,0,0.06633327,0.08270744,290.53471)"
       style="fill:#ffffff"
       inkscape:export-xdpi="90"
       inkscape:export-ydpi="90">
      <g
         id="g15537"
         style="fill:#ffffff">
        <g
           id="g15535"
           style="fill:#ffffff">
          <path
             style="fill:#ffffff"
             d="M 20.766,83.306 H 6.002 V 71.78 H 19.833 V 66.763 H 6.002 V 56.767 H 20.766 V 51.695 H 0 v 36.706 h 20.766 z"
             id="polygon15529"
             inkscape:connector-curvature="0" />
          <path
             id="path15531"
             d="m 44.315,56.315 c 1.519,0 2.977,0.221 4.351,0.662 1.384,0.445 2.691,0.96 3.929,1.545 l 2.163,-4.997 c -3.183,-1.574 -6.644,-2.359 -10.398,-2.359 -3.568,0 -6.665,0.761 -9.313,2.284 -2.644,1.524 -4.661,3.72 -6.062,6.581 -1.396,2.861 -2.096,6.201 -2.096,10.017 0,6.061 1.438,10.719 4.317,13.973 2.879,3.255 7.001,4.884 12.381,4.884 3.648,0 6.913,-0.541 9.787,-1.633 v -5.146 c -1.574,0.486 -3.088,0.883 -4.546,1.19 -1.458,0.309 -2.963,0.463 -4.516,0.463 -3.6,0 -6.354,-1.157 -8.249,-3.467 -1.904,-2.307 -2.854,-5.715 -2.854,-10.219 0,-4.302 0.993,-7.673 2.965,-10.116 1.98,-2.44 4.692,-3.662 8.141,-3.662 z"
             inkscape:connector-curvature="0"
             style="fill:#ffffff" />
          <path
             id="path15533"
             d="m 110.68,23.592 c -0.411,-0.147 -1.062,-0.457 -1.827,-0.628 -0.773,-0.183 -1.814,-0.501 -2.868,-0.546 -1.062,-0.063 -2.263,-0.049 -3.573,0.065 -1.272,0.158 -2.56,0.488 -3.936,0.902 -1.368,0.419 -2.621,1.068 -3.949,1.776 -1.3,0.729 -2.471,1.622 -3.641,2.593 -1.102,0.996 -2.149,2.085 -3.101,3.246 -0.869,1.181 -1.745,2.404 -2.396,3.691 -0.678,1.278 -1.26,2.592 -1.66,3.927 -0.865,2.647 -1.146,5.344 -1.088,7.734 0.055,1.213 0.178,2.334 0.366,3.36 0.178,1.003 0.459,1.925 0.688,2.671 -1.81,-0.645 -3.791,-1.05 -6.033,-1.143 0.024,-0.018 0.045,-0.034 0.065,-0.052 -0.336,-0.015 -0.63,-0.079 -0.976,-0.079 -5.537,0 -9.801,1.624 -12.792,4.872 -2.984,3.249 -4.477,7.9 -4.477,13.957 0,0.024 0,0.045 0,0.065 0,0.02 0,0.041 0,0.062 0,1.188 0.104,2.286 0.22,3.367 l 0.007,-0.003 c 0.482,4.376 1.861,7.915 4.229,10.533 2.779,3.08 6.731,4.657 11.755,4.855 -0.021,0.018 -0.041,0.034 -0.062,0.052 0.336,0.014 0.63,0.078 0.976,0.078 5.537,0 9.801,-1.625 12.792,-4.873 2.984,-3.247 4.477,-7.898 4.477,-13.955 0,-0.024 0,-0.045 0,-0.065 0,-0.02 0,-0.041 0,-0.062 0,-1.188 -0.103,-2.286 -0.223,-3.367 l -0.007,0.004 C 93.167,62.252 91.788,58.717 89.417,56.093 88.612,55.191 87.664,54.459 86.662,53.816 l 1.27,-0.003 c 0.561,-0.207 1.17,-0.428 1.786,-0.712 0.907,-0.39 1.868,-0.845 2.837,-1.36 0.985,-0.508 1.943,-1.097 2.93,-1.713 0.972,-0.617 1.902,-1.314 2.806,-2.029 0.89,-0.742 1.772,-1.488 2.56,-2.313 0.787,-0.836 1.581,-1.629 2.259,-2.532 1.396,-1.742 2.567,-3.586 3.505,-5.523 0.492,-0.915 0.89,-1.973 1.279,-2.929 0.404,-0.95 0.732,-1.999 1.062,-2.962 0.328,-0.946 0.629,-1.903 0.896,-2.832 0.294,-0.96 0.547,-1.8 0.76,-2.485 0.246,-0.683 0.396,-1.398 0.533,-1.819 0.124,-0.476 0.186,-0.724 0.186,-0.724 0,0 -0.241,-0.12 -0.651,-0.288 z m -23.532,50.632 -0.007,0.003 c -0.157,0.962 -0.383,1.838 -0.653,2.666 -0.13,0.38 -0.25,0.763 -0.4,1.112 -0.089,0.201 -0.182,0.396 -0.273,0.588 -0.315,0.62 -0.661,1.209 -1.064,1.722 -0.955,1.219 -2.167,2.095 -3.61,2.677 -1.287,0.51 -2.759,0.79 -4.438,0.79 -3.576,0 -6.283,-1.167 -8.107,-3.504 -1.824,-2.334 -2.737,-5.76 -2.737,-10.28 0,-1.526 0.144,-2.878 0.355,-4.151 0,0 0,-0.003 0.007,-0.003 0.157,-0.962 0.384,-1.838 0.653,-2.666 0.127,-0.38 0.243,-0.764 0.4,-1.112 0.082,-0.202 0.182,-0.397 0.274,-0.589 0.314,-0.619 0.66,-1.208 1.061,-1.722 0.958,-1.218 2.17,-2.094 3.614,-2.676 1.286,-0.512 2.751,-0.792 4.438,-0.792 3.576,0 6.282,1.168 8.106,3.506 1.824,2.334 2.738,5.76 2.738,10.28 -0.004,1.526 -0.148,2.877 -0.357,4.151 z M 97.799,34.477 c -0.295,0.241 -0.678,0.479 -1.041,0.857 -0.376,0.364 -0.804,0.771 -1.259,1.216 -0.425,0.481 -0.883,1.01 -1.362,1.562 -0.444,0.585 -0.914,1.203 -1.396,1.838 -0.896,1.324 -1.8,2.772 -2.601,4.274 -1.622,3.003 -2.93,6.156 -3.792,8.557 -0.096,0.256 -0.178,0.495 -0.26,0.729 -0.548,-0.312 -1.074,-0.655 -1.67,-0.903 0.075,-0.175 0.144,-0.334 0.226,-0.519 1.082,-2.384 2.67,-5.491 4.559,-8.422 0.938,-1.461 1.975,-2.863 2.991,-4.131 0.547,-0.612 1.067,-1.201 1.567,-1.762 0.526,-0.519 1.033,-1.017 1.498,-1.465 0.5,-0.417 0.966,-0.792 1.369,-1.126 0.397,-0.353 0.808,-0.568 1.115,-0.777 0.637,-0.417 0.993,-0.648 0.993,-0.648 0,0 -0.336,0.263 -0.937,0.72 z"
             inkscape:connector-curvature="0"
             style="fill:#ffffff" />
        </g>
      </g>
      <g
         id="g15539"
         style="fill:#ffffff" />
      <g
         id="g15541"
         style="fill:#ffffff" />
      <g
         id="g15543"
         style="fill:#ffffff" />
      <g
         id="g15545"
         style="fill:#ffffff" />
      <g
         id="g15547"
         style="fill:#ffffff" />
      <g
         id="g15549"
         style="fill:#ffffff" />
      <g
         id="g15551"
         style="fill:#ffffff" />
      <g
         id="g15553"
         style="fill:#ffffff" />
      <g
         id="g15555"
         style="fill:#ffffff" />
      <g
         id="g15557"
         style="fill:#ffffff" />
      <g
         id="g15559"
         style="fill:#ffffff" />
      <g
         id="g15561"
         style="fill:#ffffff" />
      <g
         id="g15563"
         style="fill:#ffffff" />
      <g
         id="g15565"
         style="fill:#ffffff" />
      <g
         id="g15567"
         style="fill:#ffffff" />
    </g>
  </g>
</svg>
