<?xml version="1.0" encoding="UTF-8" standalone="no"?>
<!-- Created with Inkscape (http://www.inkscape.org/) -->

<svg
   xmlns:dc="http://purl.org/dc/elements/1.1/"
   xmlns:cc="http://creativecommons.org/ns#"
   xmlns:rdf="http://www.w3.org/1999/02/22-rdf-syntax-ns#"
   xmlns:svg="http://www.w3.org/2000/svg"
   xmlns="http://www.w3.org/2000/svg"
   xmlns:sodipodi="http://sodipodi.sourceforge.net/DTD/sodipodi-0.dtd"
   xmlns:inkscape="http://www.inkscape.org/namespaces/inkscape"
   width="20"
   height="20"
   viewBox="0 0 5.2916665 5.2916665"
   version="1.1"
   id="svg8"
   inkscape:version="0.92.2 (5c3e80d, 2017-08-06)"
   sodipodi:docname="icon 1.svg">
  <defs
     id="defs2" />
  <sodipodi:namedview
     id="base"
     pagecolor="#ffffff"
     bordercolor="#666666"
     borderopacity="1.0"
     inkscape:pageopacity="0.0"
     inkscape:pageshadow="2"
     inkscape:zoom="7.9195959"
     inkscape:cx="52.566897"
     inkscape:cy="41.844439"
     inkscape:document-units="mm"
     inkscape:current-layer="layer1"
     showgrid="false"
     inkscape:window-width="2560"
     inkscape:window-height="1017"
     inkscape:window-x="-8"
     inkscape:window-y="73"
     inkscape:window-maximized="1"
     units="px" />
  <metadata
     id="metadata5">
    <rdf:RDF>
      <cc:Work
         rdf:about="">
        <dc:format>image/svg+xml</dc:format>
        <dc:type
           rdf:resource="http://purl.org/dc/dcmitype/StillImage" />
        <dc:title></dc:title>
      </cc:Work>
    </rdf:RDF>
  </metadata>
  <g
     inkscape:label="Layer 1"
     inkscape:groupmode="layer"
     id="layer1"
     transform="translate(0,-291.70833)">
    <g
       style="fill:#ffffff;stroke:#333333"
       inkscape:export-ydpi="90"
       inkscape:export-xdpi="90"
       transform="matrix(0.48705352,0,0,0.48705352,-464.24364,277.99534)"
       id="g16629">
      <g
         id="g16591"
         transform="matrix(0.01267763,0,0,0.01267763,952.31005,28.527629)"
         style="fill:#ffffff;stroke:#333333;stroke-width:8.18924332;stroke-miterlimit:4;stroke-dasharray:none;stroke-opacity:1">
        <g
           id="g16559"
           style="fill:#ffffff;stroke:#333333;stroke-width:8.18924332;stroke-miterlimit:4;stroke-dasharray:none;stroke-opacity:1">
          <path
             id="path16557"
             d="m 373.378,686.818 c 5.149,-1.453 9.347,-40.065 49.407,-43.172 0,0 11.578,-47.188 11.578,-65.431 0,-18.254 -16.472,-51.197 -16.472,-52.978 0,-1.779 -13.353,-28.933 32.493,-110.39 45.845,-81.457 45.845,-89.019 45.845,-104.159 -12.016,24.04 -44.065,41.845 -44.065,41.845 0,0 118.397,-150.452 94.812,-186.953 -6.235,31.158 -33.162,42.51 -33.162,42.51 C 585.702,99.263 527.833,0 527.833,0 c 0,0 -178.937,44.511 -187.841,203.867 -5.825,-11.248 -21.366,-21.368 -21.366,-21.368 0,0 -70.333,77.446 -76.561,300.902 0,0 -6.897,135.987 74.783,217.671 0,0 10.241,15.572 14.687,16.909 4.445,1.337 13.801,19.143 13.801,19.143 0,0 -0.847,9.013 9.284,14.576 l 17.223,38.839 c 0,0 19.85,3.296 23.148,0 3.296,-3.296 -7.902,-24.16 -16.137,-41.877 -0.33,-9.275 -8.588,-29.344 -8.588,-29.344 0,0 -1.305,-31.251 3.112,-32.5 z M 346.971,662.486 C 266.695,419.033 472.701,107.961 472.701,107.961 444.607,204.339 306.668,371.168 346.971,662.486 Z"
             inkscape:connector-curvature="0"
             style="fill:#ffffff;stroke:#333333;stroke-width:8.18924332;stroke-miterlimit:4;stroke-dasharray:none;stroke-opacity:1" />
        </g>
        <g
           id="g16561"
           style="fill:#ffffff;stroke:#333333;stroke-width:8.18924332;stroke-miterlimit:4;stroke-dasharray:none;stroke-opacity:1" />
        <g
           id="g16563"
           style="fill:#ffffff;stroke:#333333;stroke-width:8.18924332;stroke-miterlimit:4;stroke-dasharray:none;stroke-opacity:1" />
        <g
           id="g16565"
           style="fill:#ffffff;stroke:#333333;stroke-width:8.18924332;stroke-miterlimit:4;stroke-dasharray:none;stroke-opacity:1" />
        <g
           id="g16567"
           style="fill:#ffffff;stroke:#333333;stroke-width:8.18924332;stroke-miterlimit:4;stroke-dasharray:none;stroke-opacity:1" />
        <g
           id="g16569"
           style="fill:#ffffff;stroke:#333333;stroke-width:8.18924332;stroke-miterlimit:4;stroke-dasharray:none;stroke-opacity:1" />
        <g
           id="g16571"
           style="fill:#ffffff;stroke:#333333;stroke-width:8.18924332;stroke-miterlimit:4;stroke-dasharray:none;stroke-opacity:1" />
        <g
           id="g16573"
           style="fill:#ffffff;stroke:#333333;stroke-width:8.18924332;stroke-miterlimit:4;stroke-dasharray:none;stroke-opacity:1" />
        <g
           id="g16575"
           style="fill:#ffffff;stroke:#333333;stroke-width:8.18924332;stroke-miterlimit:4;stroke-dasharray:none;stroke-opacity:1" />
        <g
           id="g16577"
           style="fill:#ffffff;stroke:#333333;stroke-width:8.18924332;stroke-miterlimit:4;stroke-dasharray:none;stroke-opacity:1" />
        <g
           id="g16579"
           style="fill:#ffffff;stroke:#333333;stroke-width:8.18924332;stroke-miterlimit:4;stroke-dasharray:none;stroke-opacity:1" />
        <g
           id="g16581"
           style="fill:#ffffff;stroke:#333333;stroke-width:8.18924332;stroke-miterlimit:4;stroke-dasharray:none;stroke-opacity:1" />
        <g
           id="g16583"
           style="fill:#ffffff;stroke:#333333;stroke-width:8.18924332;stroke-miterlimit:4;stroke-dasharray:none;stroke-opacity:1" />
        <g
           id="g16585"
           style="fill:#ffffff;stroke:#333333;stroke-width:8.18924332;stroke-miterlimit:4;stroke-dasharray:none;stroke-opacity:1" />
        <g
           id="g16587"
           style="fill:#ffffff;stroke:#333333;stroke-width:8.18924332;stroke-miterlimit:4;stroke-dasharray:none;stroke-opacity:1" />
        <g
           id="g16589"
           style="fill:#ffffff;stroke:#333333;stroke-width:8.18924332;stroke-miterlimit:4;stroke-dasharray:none;stroke-opacity:1" />
      </g>
      <g
         style="fill:#ffffff;stroke:#333333;stroke-width:8.18924332;stroke-miterlimit:4;stroke-dasharray:none;stroke-opacity:1"
         transform="matrix(0.01156085,0.0052028,-0.0052028,0.01156085,956.92426,27.483588)"
         id="g16627">
        <g
           style="fill:#ffffff;stroke:#333333;stroke-width:8.18924332;stroke-miterlimit:4;stroke-dasharray:none;stroke-opacity:1"
           id="g16595">
          <path
             style="fill:#ffffff;stroke:#333333;stroke-width:8.18924332;stroke-miterlimit:4;stroke-dasharray:none;stroke-opacity:1"
             inkscape:connector-curvature="0"
             d="m 373.378,686.818 c 5.149,-1.453 9.347,-40.065 49.407,-43.172 0,0 11.578,-47.188 11.578,-65.431 0,-18.254 -16.472,-51.197 -16.472,-52.978 0,-1.779 -13.353,-28.933 32.493,-110.39 45.845,-81.457 45.845,-89.019 45.845,-104.159 -12.016,24.04 -44.065,41.845 -44.065,41.845 0,0 118.397,-150.452 94.812,-186.953 -6.235,31.158 -33.162,42.51 -33.162,42.51 C 585.702,99.263 527.833,0 527.833,0 c 0,0 -178.937,44.511 -187.841,203.867 -5.825,-11.248 -21.366,-21.368 -21.366,-21.368 0,0 -70.333,77.446 -76.561,300.902 0,0 -6.897,135.987 74.783,217.671 0,0 10.241,15.572 14.687,16.909 4.445,1.337 13.801,19.143 13.801,19.143 0,0 -0.847,9.013 9.284,14.576 l 17.223,38.839 c 0,0 19.85,3.296 23.148,0 3.296,-3.296 -7.902,-24.16 -16.137,-41.877 -0.33,-9.275 -8.588,-29.344 -8.588,-29.344 0,0 -1.305,-31.251 3.112,-32.5 z M 346.971,662.486 C 266.695,419.033 472.701,107.961 472.701,107.961 444.607,204.339 306.668,371.168 346.971,662.486 Z"
             id="path16593" />
        </g>
        <g
           style="fill:#ffffff;stroke:#333333;stroke-width:8.18924332;stroke-miterlimit:4;stroke-dasharray:none;stroke-opacity:1"
           id="g16597" />
        <g
           style="fill:#ffffff;stroke:#333333;stroke-width:8.18924332;stroke-miterlimit:4;stroke-dasharray:none;stroke-opacity:1"
           id="g16599" />
        <g
           style="fill:#ffffff;stroke:#333333;stroke-width:8.18924332;stroke-miterlimit:4;stroke-dasharray:none;stroke-opacity:1"
           id="g16601" />
        <g
           style="fill:#ffffff;stroke:#333333;stroke-width:8.18924332;stroke-miterlimit:4;stroke-dasharray:none;stroke-opacity:1"
           id="g16603" />
        <g
           style="fill:#ffffff;stroke:#333333;stroke-width:8.18924332;stroke-miterlimit:4;stroke-dasharray:none;stroke-opacity:1"
           id="g16605" />
        <g
           style="fill:#ffffff;stroke:#333333;stroke-width:8.18924332;stroke-miterlimit:4;stroke-dasharray:none;stroke-opacity:1"
           id="g16607" />
        <g
           style="fill:#ffffff;stroke:#333333;stroke-width:8.18924332;stroke-miterlimit:4;stroke-dasharray:none;stroke-opacity:1"
           id="g16609" />
        <g
           style="fill:#ffffff;stroke:#333333;stroke-width:8.18924332;stroke-miterlimit:4;stroke-dasharray:none;stroke-opacity:1"
           id="g16611" />
        <g
           style="fill:#ffffff;stroke:#333333;stroke-width:8.18924332;stroke-miterlimit:4;stroke-dasharray:none;stroke-opacity:1"
           id="g16613" />
        <g
           style="fill:#ffffff;stroke:#333333;stroke-width:8.18924332;stroke-miterlimit:4;stroke-dasharray:none;stroke-opacity:1"
           id="g16615" />
        <g
           style="fill:#ffffff;stroke:#333333;stroke-width:8.18924332;stroke-miterlimit:4;stroke-dasharray:none;stroke-opacity:1"
           id="g16617" />
        <g
           style="fill:#ffffff;stroke:#333333;stroke-width:8.18924332;stroke-miterlimit:4;stroke-dasharray:none;stroke-opacity:1"
           id="g16619" />
        <g
           style="fill:#ffffff;stroke:#333333;stroke-width:8.18924332;stroke-miterlimit:4;stroke-dasharray:none;stroke-opacity:1"
           id="g16621" />
        <g
           style="fill:#ffffff;stroke:#333333;stroke-width:8.18924332;stroke-miterlimit:4;stroke-dasharray:none;stroke-opacity:1"
           id="g16623" />
        <g
           style="fill:#ffffff;stroke:#333333;stroke-width:8.18924332;stroke-miterlimit:4;stroke-dasharray:none;stroke-opacity:1"
           id="g16625" />
      </g>
    </g>
  </g>
</svg>
