<?xml version="1.0" encoding="UTF-8" standalone="no"?>
<!-- Created with Inkscape (http://www.inkscape.org/) -->

<svg
   xmlns:dc="http://purl.org/dc/elements/1.1/"
   xmlns:cc="http://creativecommons.org/ns#"
   xmlns:rdf="http://www.w3.org/1999/02/22-rdf-syntax-ns#"
   xmlns:svg="http://www.w3.org/2000/svg"
   xmlns="http://www.w3.org/2000/svg"
   xmlns:sodipodi="http://sodipodi.sourceforge.net/DTD/sodipodi-0.dtd"
   xmlns:inkscape="http://www.inkscape.org/namespaces/inkscape"
   width="90"
   height="45"
   viewBox="0 0 23.812501 11.90625"
   version="1.1"
   id="svg8"
   inkscape:version="0.92.2 (5c3e80d, 2017-08-06)"
   sodipodi:docname="apple pay.svg">
  <defs
     id="defs2" />
  <sodipodi:namedview
     id="base"
     pagecolor="#ffffff"
     bordercolor="#666666"
     borderopacity="1.0"
     inkscape:pageopacity="0.0"
     inkscape:pageshadow="2"
     inkscape:zoom="1.979899"
     inkscape:cx="115.69309"
     inkscape:cy="43.58287"
     inkscape:document-units="mm"
     inkscape:current-layer="layer1"
     showgrid="false"
     units="px"
     inkscape:window-width="2560"
     inkscape:window-height="1017"
     inkscape:window-x="-8"
     inkscape:window-y="73"
     inkscape:window-maximized="1" />
  <metadata
     id="metadata5">
    <rdf:RDF>
      <cc:Work
         rdf:about="">
        <dc:format>image/svg+xml</dc:format>
        <dc:type
           rdf:resource="http://purl.org/dc/dcmitype/StillImage" />
        <dc:title></dc:title>
      </cc:Work>
    </rdf:RDF>
  </metadata>
  <g
     inkscape:label="Layer 1"
     inkscape:groupmode="layer"
     id="layer1"
     transform="translate(0,-285.09375)">
    <g
       id="g8245"
       transform="translate(-279.77244,-59.353038)">
      <g
         style="opacity:0.48900003;fill:#d5e5ff"
         transform="matrix(0.2960085,0,0,0.2960085,239.06784,202.38722)"
         id="g8241">
        <path
           inkscape:connector-curvature="0"
           style="opacity:0.43200001;fill:#d5e5ff;fill-opacity:1;stroke:none;stroke-width:0.1703639;stroke-linecap:round;stroke-linejoin:round;stroke-miterlimit:4;stroke-dasharray:none;stroke-opacity:1"
           d="m 138.98015,480.34689 h 77.50816 v 39.02135 h -77.50816 z"
           id="rect8239" />
      </g>
      <g
         id="g8274"
         transform="matrix(0.03278398,0,0,0.03278398,283.28502,346.90371)"
         style="fill:#b3b3b3">
        <path
           d="M 93.6,27.1 C 87.6,34.2 78,39.8 68.4,39 c -1.2,-9.6 3.5,-19.8 9,-26.1 6,-7.3 16.5,-12.5 25,-12.9 1,10 -2.9,19.8 -8.8,27.1 m 8.7,13.8 c -13.9,-0.8 -25.8,7.9 -32.4,7.9 -6.7,0 -16.8,-7.5 -27.8,-7.3 -14.3,0.2 -27.6,8.3 -34.9,21.2 -15,25.8 -3.9,64 10.6,85 7.1,10.4 15.6,21.8 26.8,21.4 10.6,-0.4 14.8,-6.9 27.6,-6.9 12.9,0 16.6,6.9 27.8,6.7 11.6,-0.2 18.9,-10.4 26,-20.8 8.1,-11.8 11.4,-23.3 11.6,-23.9 -0.2,-0.2 -22.4,-8.7 -22.6,-34.3 -0.2,-21.4 17.5,-31.6 18.3,-32.2 -10,-14.8 -25.6,-16.4 -31,-16.8 m 80.3,-29 v 155.9 h 24.2 v -53.3 h 33.5 c 30.6,0 52.1,-21 52.1,-51.4 0,-30.4 -21.1,-51.2 -51.3,-51.2 z m 24.2,20.4 h 27.9 c 21,0 33,11.2 33,30.9 0,19.7 -12,31 -33.1,31 H 206.8 Z M 336.6,169 c 15.2,0 29.3,-7.7 35.7,-19.9 h 0.5 v 18.7 h 22.4 V 90.2 c 0,-22.5 -18,-37 -45.7,-37 -25.7,0 -44.7,14.7 -45.4,34.9 h 21.8 c 1.8,-9.6 10.7,-15.9 22.9,-15.9 14.8,0 23.1,6.9 23.1,19.6 v 8.6 l -30.2,1.8 c -28.1,1.7 -43.3,13.2 -43.3,33.2 0,20.2 15.7,33.6 38.2,33.6 z m 6.5,-18.5 c -12.9,0 -21.1,-6.2 -21.1,-15.7 0,-9.8 7.9,-15.5 23,-16.4 l 26.9,-1.7 v 8.8 c 0,14.6 -12.4,25 -28.8,25 z m 82,59.7 c 23.6,0 34.7,-9 44.4,-36.3 L 512,54.7 h -24.6 l -28.5,92.1 h -0.5 L 429.9,54.7 h -25.3 l 41,113.5 -2.2,6.9 c -3.7,11.7 -9.7,16.2 -20.4,16.2 -1.9,0 -5.6,-0.2 -7.1,-0.4 v 18.7 c 1.4,0.4 7.4,0.6 9.2,0.6 z"
           id="XMLID_34_"
           inkscape:connector-curvature="0"
           style="fill:#b3b3b3" />
        <g
           id="g8248"
           style="fill:#b3b3b3" />
        <g
           id="g8250"
           style="fill:#b3b3b3" />
        <g
           id="g8252"
           style="fill:#b3b3b3" />
        <g
           id="g8254"
           style="fill:#b3b3b3" />
        <g
           id="g8256"
           style="fill:#b3b3b3" />
        <g
           id="g8258"
           style="fill:#b3b3b3" />
      </g>
    </g>
  </g>
</svg>
