<?xml version="1.0" encoding="UTF-8" standalone="no"?>
<!-- Created with Inkscape (http://www.inkscape.org/) -->

<svg
   xmlns:dc="http://purl.org/dc/elements/1.1/"
   xmlns:cc="http://creativecommons.org/ns#"
   xmlns:rdf="http://www.w3.org/1999/02/22-rdf-syntax-ns#"
   xmlns:svg="http://www.w3.org/2000/svg"
   xmlns="http://www.w3.org/2000/svg"
   xmlns:sodipodi="http://sodipodi.sourceforge.net/DTD/sodipodi-0.dtd"
   xmlns:inkscape="http://www.inkscape.org/namespaces/inkscape"
   width="20"
   height="20"
   viewBox="0 0 5.2916665 5.2916669"
   version="1.1"
   id="svg8"
   inkscape:version="0.92.2 (5c3e80d, 2017-08-06)"
   sodipodi:docname="basket 20px.svg">
  <defs
     id="defs2" />
  <sodipodi:namedview
     id="base"
     pagecolor="#ffffff"
     bordercolor="#666666"
     borderopacity="1.0"
     inkscape:pageopacity="0.0"
     inkscape:pageshadow="2"
     inkscape:zoom="3.959798"
     inkscape:cx="97.412438"
     inkscape:cy="19.127352"
     inkscape:document-units="mm"
     inkscape:current-layer="g4907"
     showgrid="false"
     units="px"
     inkscape:window-width="2560"
     inkscape:window-height="1017"
     inkscape:window-x="-8"
     inkscape:window-y="73"
     inkscape:window-maximized="1"
     showguides="true"
     inkscape:guide-bbox="true"
     inkscape:snap-global="false" />
  <metadata
     id="metadata5">
    <rdf:RDF>
      <cc:Work
         rdf:about="">
        <dc:format>image/svg+xml</dc:format>
        <dc:type
           rdf:resource="http://purl.org/dc/dcmitype/StillImage" />
        <dc:title></dc:title>
      </cc:Work>
    </rdf:RDF>
  </metadata>
  <g
     inkscape:label="Layer 1"
     inkscape:groupmode="layer"
     id="layer1"
     transform="translate(0,-291.70831)">
    <g
       transform="matrix(1.3945943,0,0,1.3945943,492.67237,-578.52526)"
       style="opacity:0.45"
       id="g1052"
       inkscape:export-filename="D:\msvystunov\Ted a car\LOGOW4.png"
       inkscape:export-xdpi="90"
       inkscape:export-ydpi="90">
      <g
         transform="translate(23.54556,11.15316)"
         id="g1050">
        <g
           style="opacity:1"
           id="g4907"
           transform="matrix(0.41082905,0,0,0.41082905,583.392,1210.0467)"
           inkscape:export-xdpi="90"
           inkscape:export-ydpi="90">
          <g
             id="g4850"
             transform="matrix(0.01856158,0,0,0.01856158,-2337.1827,-1453.4991)"
             style="fill:#ffffff">
            <g
               id="g4794"
               style="fill:#ffffff">
              <path
                 id="path4792"
                 d="m 146.069,320.369 h 268.1 c 30.4,0 55.2,-24.8 55.2,-55.2 v -112.8 c 0,-0.1 0,-0.3 0,-0.4 0,-0.3 0,-0.5 0,-0.8 0,-0.2 0,-0.4 -0.1,-0.6 0,-0.2 -0.1,-0.5 -0.1,-0.7 0,-0.2 -0.1,-0.4 -0.1,-0.6 -0.1,-0.2 -0.1,-0.4 -0.2,-0.7 -0.1,-0.2 -0.1,-0.4 -0.2,-0.6 -0.1,-0.2 -0.1,-0.4 -0.2,-0.6 -0.1,-0.2 -0.2,-0.4 -0.3,-0.7 -0.1,-0.2 -0.2,-0.4 -0.3,-0.5 -0.1,-0.2 -0.2,-0.4 -0.3,-0.6 -0.1,-0.2 -0.2,-0.3 -0.3,-0.5 -0.1,-0.2 -0.3,-0.4 -0.4,-0.6 -0.1,-0.2 -0.2,-0.3 -0.4,-0.5 -0.1,-0.2 -0.3,-0.3 -0.4,-0.5 -0.1,-0.2 -0.3,-0.3 -0.4,-0.5 -0.1,-0.2 -0.3,-0.3 -0.4,-0.4 -0.2,-0.2 -0.3,-0.3 -0.5,-0.5 -0.2,-0.1 -0.3,-0.3 -0.5,-0.4 -0.2,-0.1 -0.4,-0.3 -0.6,-0.4 -0.2,-0.1 -0.3,-0.2 -0.5,-0.3 -0.2,-0.1 -0.4,-0.2 -0.6,-0.4 -0.2,-0.1 -0.4,-0.2 -0.6,-0.3 -0.2,-0.1 -0.4,-0.2 -0.6,-0.3 -0.2,-0.1 -0.4,-0.2 -0.6,-0.3 -0.2,-0.1 -0.4,-0.1 -0.6,-0.2 -0.2,-0.1 -0.5,-0.2 -0.7,-0.2 -0.2,0 -0.4,-0.1 -0.5,-0.1 -0.3,-0.1 -0.5,-0.1 -0.8,-0.1 -0.1,0 -0.2,-0.1 -0.4,-0.1 l -339.8,-46.9 v -47.4 c 0,-0.5 0,-1 -0.1,-1.4 0,-0.1 0,-0.2 -0.1,-0.4 0,-0.3 -0.1,-0.6 -0.1,-0.9 -0.1,-0.3 -0.1,-0.5 -0.2,-0.8 0,-0.2 -0.1,-0.3 -0.1,-0.5 -0.1,-0.3 -0.2,-0.6 -0.3,-0.9 0,-0.1 -0.1,-0.3 -0.1,-0.4 -0.1,-0.3 -0.2,-0.5 -0.4,-0.8 -0.1,-0.1 -0.1,-0.3 -0.2,-0.4 -0.1,-0.2 -0.2,-0.4 -0.4,-0.6 -0.1,-0.2 -0.2,-0.3 -0.3,-0.5 -0.1,-0.2 -0.2,-0.3 -0.3,-0.5 -0.1,-0.2 -0.3,-0.4 -0.4,-0.6 -0.1,-0.1 -0.2,-0.2 -0.3,-0.3 -0.2,-0.2 -0.4,-0.4 -0.6,-0.6 -0.1,-0.1 -0.2,-0.2 -0.3,-0.3 -0.2,-0.2 -0.4,-0.4 -0.7,-0.6 -0.1,-0.1 -0.3,-0.2 -0.4,-0.3 -0.2,-0.2 -0.4,-0.3 -0.6,-0.5 -0.3,-0.2 -0.6,-0.4 -0.8,-0.5 -0.1,-0.1 -0.2,-0.1 -0.3,-0.2 -0.4,-0.2 -0.9,-0.4 -1.3,-0.6 l -73.7,-31 c -6.9,-2.9 -14.8,0.3 -17.7,7.2 -2.9,6.9 0.3,14.8 7.2,17.7 l 65.4,27.6 v 61.2 9.7 74.4 66.5 84 c 0,28 21,51.2 48.1,54.7 -4.9,8.2 -7.8,17.8 -7.8,28 0,30.1 24.5,54.5 54.5,54.5 30,0 54.5,-24.5 54.5,-54.5 0,-10 -2.7,-19.5 -7.5,-27.5 h 121.4 c -4.8,8.1 -7.5,17.5 -7.5,27.5 0,30.1 24.5,54.5 54.5,54.5 30,0 54.5,-24.5 54.5,-54.5 0,-30 -24.5,-54.5 -54.5,-54.5 h -255 c -15.6,0 -28.2,-12.7 -28.2,-28.2 v -36.6 c 8.2,4.8 17.9,7.6 28.2,7.6 z m 67.2,111.6 c 0,15.2 -12.4,27.5 -27.5,27.5 -15.1,0 -27.5,-12.4 -27.5,-27.5 0,-15.1 12.4,-27.5 27.5,-27.5 15.1,0 27.5,12.3 27.5,27.5 z m 215.4,0 c 0,15.2 -12.4,27.5 -27.5,27.5 -15.1,0 -27.5,-12.4 -27.5,-27.5 0,-15.1 12.4,-27.5 27.5,-27.5 15.1,0 27.5,12.3 27.5,27.5 z m -14.5,-138.6 h -268.1 c -15.6,0 -28.2,-12.7 -28.2,-28.2 v -66.5 -74.4 -5 l 324.5,44.7 v 101.1 c 0,15.7 -12.7,28.3 -28.2,28.3 z"
                 inkscape:connector-curvature="0"
                 style="fill:#ffffff" />
            </g>
            <g
               id="g4796"
               style="fill:#ffffff" />
            <g
               id="g4798"
               style="fill:#ffffff" />
            <g
               id="g4800"
               style="fill:#ffffff" />
            <g
               id="g4802"
               style="fill:#ffffff" />
            <g
               id="g4804"
               style="fill:#ffffff" />
            <g
               id="g4806"
               style="fill:#ffffff" />
            <g
               id="g4808"
               style="fill:#ffffff" />
            <g
               id="g4810"
               style="fill:#ffffff" />
            <g
               id="g4812"
               style="fill:#ffffff" />
            <g
               id="g4814"
               style="fill:#ffffff" />
            <g
               id="g4816"
               style="fill:#ffffff" />
            <g
               id="g4818"
               style="fill:#ffffff" />
            <g
               id="g4820"
               style="fill:#ffffff" />
            <g
               id="g4822"
               style="fill:#ffffff" />
            <g
               id="g4824"
               style="fill:#ffffff" />
          </g>
        </g>
      </g>
    </g>
    <flowRoot
       xml:space="preserve"
       id="flowRoot1078"
       style="font-style:normal;font-weight:normal;font-size:40px;line-height:1.25;font-family:sans-serif;letter-spacing:0px;word-spacing:0px;fill:#000000;fill-opacity:1;stroke:none"
       transform="matrix(0.26458333,0,0,0.26458333,0,163.38539)"><flowRegion
         id="flowRegion1080"><rect
           id="rect1082"
           width="2005.7142"
           height="851.42859"
           x="3142.8572"
           y="1196.4286" /></flowRegion><flowPara
         id="flowPara1084"></flowPara></flowRoot>    <flowRoot
       xml:space="preserve"
       id="flowRoot1088"
       style="font-style:normal;font-weight:normal;font-size:40px;line-height:1.25;font-family:sans-serif;letter-spacing:0px;word-spacing:0px;fill:#000000;fill-opacity:1;stroke:none"
       transform="matrix(0.26458333,0,0,0.26458333,0,163.38539)"><flowRegion
         id="flowRegion1090"><rect
           id="rect1092"
           width="97.14286"
           height="68.571426"
           x="6091.4287"
           y="1276.4286" /></flowRegion><flowPara
         id="flowPara1094"></flowPara></flowRoot>  </g>
</svg>
