<?xml version="1.0" encoding="UTF-8" standalone="no"?>
<!-- Created with Inkscape (http://www.inkscape.org/) -->

<svg
   xmlns:dc="http://purl.org/dc/elements/1.1/"
   xmlns:cc="http://creativecommons.org/ns#"
   xmlns:rdf="http://www.w3.org/1999/02/22-rdf-syntax-ns#"
   xmlns:svg="http://www.w3.org/2000/svg"
   xmlns="http://www.w3.org/2000/svg"
   xmlns:sodipodi="http://sodipodi.sourceforge.net/DTD/sodipodi-0.dtd"
   xmlns:inkscape="http://www.inkscape.org/namespaces/inkscape"
   width="4mm"
   height="6mm"
   viewBox="0 0 4 6"
   version="1.1"
   id="svg8"
   inkscape:version="0.92.2 (5c3e80d, 2017-08-06)"
   sodipodi:docname="icon 2.svg">
  <defs
     id="defs2" />
  <sodipodi:namedview
     id="base"
     pagecolor="#ffffff"
     bordercolor="#666666"
     borderopacity="1.0"
     inkscape:pageopacity="0.0"
     inkscape:pageshadow="2"
     inkscape:zoom="7.9195959"
     inkscape:cx="52.566897"
     inkscape:cy="41.844439"
     inkscape:document-units="mm"
     inkscape:current-layer="layer1"
     showgrid="false"
     inkscape:window-width="2560"
     inkscape:window-height="1017"
     inkscape:window-x="-8"
     inkscape:window-y="73"
     inkscape:window-maximized="1" />
  <metadata
     id="metadata5">
    <rdf:RDF>
      <cc:Work
         rdf:about="">
        <dc:format>image/svg+xml</dc:format>
        <dc:type
           rdf:resource="http://purl.org/dc/dcmitype/StillImage" />
        <dc:title></dc:title>
      </cc:Work>
    </rdf:RDF>
  </metadata>
  <g
     inkscape:label="Layer 1"
     inkscape:groupmode="layer"
     id="layer1"
     transform="translate(0,-291)">
    <g
       id="g15218"
       transform="matrix(0.01115976,0,0,0.01107839,-0.5280243,291.71299)">
      <g
         id="g15161">
        <g
           id="Layer_8_7_">
          <path
             id="path15158"
             d="m 369.822,42.794 h 17.744 V 0 H 66.305 v 42.794 h 17.746 v 11.105 c 0,69.716 23.859,133.656 63.155,171.591 -39.296,37.942 -63.155,101.877 -63.155,171.596 v 13.992 H 66.305 v 42.793 h 321.261 v -42.793 h -17.744 v -13.992 c 0,-69.719 -23.863,-133.653 -63.154,-171.596 39.291,-37.935 63.154,-101.864 63.154,-171.591 z m -93.084,171.533 -14.735,11.163 14.735,11.163 c 36.771,27.885 61.451,84.345 64.71,146.425 H 112.431 c 3.257,-62.074 27.926,-118.534 64.708,-146.425 l 14.727,-11.163 -14.727,-11.163 c -36.776,-27.888 -61.451,-84.34 -64.708,-146.42 h 229.008 c -3.25,62.08 -27.931,118.532 -64.701,146.42 z M 141.955,90.167 h 169.96 c -2.457,47.136 -21.202,90.009 -49.143,111.183 0,0 -4.784,2.066 -11.173,8.47 -13.218,18.876 -13.923,87.873 -13.945,90.915 9.49,1.013 19.743,5.018 29.904,14.299 35.85,32.755 46.252,36.618 47.503,60.396 H 146.965 c 1.25,-23.772 21.646,-40.785 47.5,-60.396 0,0 12.3,-10.795 29.552,-13.79 -0.314,-0.542 -0.498,-0.908 -0.498,-0.908 0,-64.99 -21.248,-92.857 -21.248,-92.857 l -15.103,-8.47 C 159.236,177.821 144.42,137.304 141.955,90.167 Z"
             inkscape:connector-curvature="0"
             style="fill:#ffffff" />
        </g>
      </g>
      <g
         id="g15163" />
      <g
         id="g15165" />
      <g
         id="g15167" />
      <g
         id="g15169" />
      <g
         id="g15171" />
      <g
         id="g15173" />
      <g
         id="g15175" />
      <g
         id="g15177" />
      <g
         id="g15179" />
      <g
         id="g15181" />
      <g
         id="g15183" />
      <g
         id="g15185" />
      <g
         id="g15187" />
      <g
         id="g15189" />
      <g
         id="g15191" />
    </g>
  </g>
</svg>
