<?xml version="1.0" encoding="UTF-8" standalone="no"?>
<!-- Created with Inkscape (http://www.inkscape.org/) -->

<svg
   xmlns:dc="http://purl.org/dc/elements/1.1/"
   xmlns:cc="http://creativecommons.org/ns#"
   xmlns:rdf="http://www.w3.org/1999/02/22-rdf-syntax-ns#"
   xmlns:svg="http://www.w3.org/2000/svg"
   xmlns="http://www.w3.org/2000/svg"
   xmlns:sodipodi="http://sodipodi.sourceforge.net/DTD/sodipodi-0.dtd"
   xmlns:inkscape="http://www.inkscape.org/namespaces/inkscape"
   width="43"
   height="43"
   viewBox="0 0 11.377083 11.377083"
   version="1.1"
   id="svg8"
   inkscape:version="0.92.2 (5c3e80d, 2017-08-06)"
   sodipodi:docname="insta 40px.svg">
  <defs
     id="defs2" />
  <sodipodi:namedview
     id="base"
     pagecolor="#ffffff"
     bordercolor="#666666"
     borderopacity="1.0"
     inkscape:pageopacity="0.0"
     inkscape:pageshadow="2"
     inkscape:zoom="7.9195959"
     inkscape:cx="34.423717"
     inkscape:cy="25.525801"
     inkscape:document-units="mm"
     inkscape:current-layer="layer1"
     showgrid="false"
     units="px"
     inkscape:window-width="2560"
     inkscape:window-height="1017"
     inkscape:window-x="-8"
     inkscape:window-y="73"
     inkscape:window-maximized="1" />
  <metadata
     id="metadata5">
    <rdf:RDF>
      <cc:Work
         rdf:about="">
        <dc:format>image/svg+xml</dc:format>
        <dc:type
           rdf:resource="http://purl.org/dc/dcmitype/StillImage" />
        <dc:title></dc:title>
      </cc:Work>
    </rdf:RDF>
  </metadata>
  <g
     inkscape:label="Layer 1"
     inkscape:groupmode="layer"
     id="layer1"
     transform="translate(0,-285.6229)">
    <g
       id="g10626"
       transform="translate(-423.07025,-305.89212)">
      <g
         style="fill:#cccccc"
         transform="matrix(0.01033529,0,0,0.01033529,426.13731,594.6002)"
         id="g10622">
        <g
           style="fill:#cccccc"
           transform="translate(1,1)"
           id="g10590">
          <g
             style="fill:#cccccc"
             id="g10588">
            <g
               style="fill:#cccccc"
               id="g10586">
              <path
                 style="fill:#cccccc"
                 inkscape:connector-curvature="0"
                 d="M 365.08,-1 H 144.92 C 64.707,-1 -1,64.707 -1,144.92 V 365.08 C -1,445.293 64.707,511 144.92,511 H 365.08 C 445.293,511 511,445.293 511,365.08 V 144.92 C 511,64.707 445.293,-1 365.08,-1 Z m 128.853,366.08 c 0,70.827 -58.027,128.853 -128.853,128.853 H 144.92 C 74.093,493.933 16.067,435.906 16.067,365.08 V 144.92 C 16.067,74.093 74.094,16.067 144.92,16.067 h 220.16 c 70.827,0 128.853,58.027 128.853,128.853 z"
                 id="path10576" />
              <path
                 style="fill:#cccccc"
                 inkscape:connector-curvature="0"
                 d="M 365.08,50.2 H 144.92 C 92.867,50.2 50.2,92.867 50.2,144.92 v 220.16 c 0,52.053 42.667,94.72 94.72,94.72 h 220.16 c 52.053,0 94.72,-42.667 94.72,-94.72 V 144.92 C 459.8,92.867 417.133,50.2 365.08,50.2 Z m 77.653,314.88 c 0,42.667 -34.987,77.653 -77.653,77.653 H 144.92 c -42.667,0 -77.653,-34.987 -77.653,-77.653 V 144.92 c 0,-42.667 34.987,-77.653 77.653,-77.653 h 220.16 c 42.667,0 77.653,34.987 77.653,77.653 z"
                 id="path10578" />
              <path
                 style="fill:#cccccc"
                 inkscape:connector-curvature="0"
                 d="m 255,118.467 c -75.093,0 -136.533,61.44 -136.533,136.533 0,75.093 61.44,136.533 136.533,136.533 75.093,0 136.533,-61.44 136.533,-136.533 0,-75.093 -61.44,-136.533 -136.533,-136.533 z m 0,256 c -65.707,0 -119.467,-53.76 -119.467,-119.467 0,-65.707 53.76,-119.467 119.467,-119.467 65.707,0 119.467,53.76 119.467,119.467 0,65.707 -53.76,119.467 -119.467,119.467 z"
                 id="path10580" />
              <path
                 style="fill:#cccccc"
                 inkscape:connector-curvature="0"
                 d="m 255,161.133 c -52.053,0 -93.867,41.813 -93.867,93.867 0,52.053 41.813,93.867 93.867,93.867 52.054,0 93.867,-41.813 93.867,-93.867 0,-52.054 -41.814,-93.867 -93.867,-93.867 z m 0,170.667 c -42.667,0 -76.8,-34.133 -76.8,-76.8 0,-42.667 34.133,-76.8 76.8,-76.8 42.667,0 76.8,34.133 76.8,76.8 0,42.667 -34.133,76.8 -76.8,76.8 z"
                 id="path10582" />
              <path
                 style="fill:#cccccc"
                 inkscape:connector-curvature="0"
                 d="m 391.533,92.867 c -14.507,0 -25.6,11.093 -25.6,25.6 0,14.507 11.093,25.6 25.6,25.6 14.507,0 25.6,-11.093 25.6,-25.6 0,-14.507 -11.093,-25.6 -25.6,-25.6 z"
                 id="path10584" />
            </g>
          </g>
        </g>
        <g
           style="fill:#cccccc"
           id="g10592" />
        <g
           style="fill:#cccccc"
           id="g10594" />
        <g
           style="fill:#cccccc"
           id="g10596" />
        <g
           style="fill:#cccccc"
           id="g10598" />
        <g
           style="fill:#cccccc"
           id="g10600" />
        <g
           style="fill:#cccccc"
           id="g10602" />
        <g
           style="fill:#cccccc"
           id="g10604" />
        <g
           style="fill:#cccccc"
           id="g10606" />
        <g
           style="fill:#cccccc"
           id="g10608" />
        <g
           style="fill:#cccccc"
           id="g10610" />
        <g
           style="fill:#cccccc"
           id="g10612" />
        <g
           style="fill:#cccccc"
           id="g10614" />
        <g
           style="fill:#cccccc"
           id="g10616" />
        <g
           style="fill:#cccccc"
           id="g10618" />
        <g
           style="fill:#cccccc"
           id="g10620" />
      </g>
      <circle
         style="opacity:1;fill:none;fill-opacity:1;stroke:#b3b3b3;stroke-width:0.23965451;stroke-linecap:round;stroke-linejoin:round;stroke-miterlimit:4;stroke-dasharray:none;stroke-opacity:1"
         id="circle10624"
         cx="428.78314"
         cy="597.24603"
         r="5.427959" />
    </g>
  </g>
</svg>
