<?xml version="1.0" encoding="UTF-8" standalone="no"?>
<!-- Created with Inkscape (http://www.inkscape.org/) -->

<svg
   xmlns:dc="http://purl.org/dc/elements/1.1/"
   xmlns:cc="http://creativecommons.org/ns#"
   xmlns:rdf="http://www.w3.org/1999/02/22-rdf-syntax-ns#"
   xmlns:svg="http://www.w3.org/2000/svg"
   xmlns="http://www.w3.org/2000/svg"
   xmlns:sodipodi="http://sodipodi.sourceforge.net/DTD/sodipodi-0.dtd"
   xmlns:inkscape="http://www.inkscape.org/namespaces/inkscape"
   width="20"
   height="20"
   viewBox="0 0 5.2916665 5.2916665"
   version="1.1"
   id="svg8"
   inkscape:version="0.92.2 (5c3e80d, 2017-08-06)"
   sodipodi:docname="mail 20px.svg">
  <defs
     id="defs2" />
  <sodipodi:namedview
     id="base"
     pagecolor="#ffffff"
     bordercolor="#666666"
     borderopacity="1.0"
     inkscape:pageopacity="0.0"
     inkscape:pageshadow="2"
     inkscape:zoom="15.839192"
     inkscape:cx="37.911782"
     inkscape:cy="7.5891846"
     inkscape:document-units="mm"
     inkscape:current-layer="layer1"
     showgrid="false"
     units="px"
     inkscape:window-width="2560"
     inkscape:window-height="1017"
     inkscape:window-x="-8"
     inkscape:window-y="73"
     inkscape:window-maximized="1" />
  <metadata
     id="metadata5">
    <rdf:RDF>
      <cc:Work
         rdf:about="">
        <dc:format>image/svg+xml</dc:format>
        <dc:type
           rdf:resource="http://purl.org/dc/dcmitype/StillImage" />
        <dc:title></dc:title>
      </cc:Work>
    </rdf:RDF>
  </metadata>
  <g
     inkscape:label="Layer 1"
     inkscape:groupmode="layer"
     id="layer1"
     transform="translate(0,-291.70832)">
    <g
       style="fill:#cccccc"
       transform="matrix(0.01004166,0,0,0.01004166,0.04365869,291.76498)"
       id="g10812">
      <g
         style="fill:#cccccc"
         id="g10774">
        <g
           style="fill:#cccccc"
           id="g10772">
          <path
             style="fill:#cccccc"
             inkscape:connector-curvature="0"
             d="M 255,0 C 114.06,0 0,114.05 0,255 0,394.895 113.025,512 255,512 395.644,512 512,396.086 512,255 512,112.87 394.743,0 255,0 Z m 0,482.2 C 130.935,482.2 29.8,380.168 29.8,255 29.8,130.935 130.935,29.8 255,29.8 380.168,29.8 482.2,130.935 482.2,255 482.2,380.168 380.168,482.2 255,482.2 Z"
             id="path10770" />
        </g>
      </g>
      <g
         style="fill:#cccccc"
         id="g10780">
        <g
           style="fill:#cccccc"
           id="g10778">
          <path
             style="fill:#cccccc"
             inkscape:connector-curvature="0"
             d="m 255,90 c -90.981,0 -165,74.019 -165,165 0,91.323 73.867,167 165,167 36.874,0 74.175,-12.393 102.339,-34.001 6.573,-5.043 7.813,-14.459 2.77,-21.032 -5.043,-6.573 -14.46,-7.813 -21.032,-2.77 C 316.048,381.866 285.403,392.2 255,392.2 180.561,392.2 120,330.542 120,255 c 0,-74.439 60.561,-135.2 135,-135.2 75.542,0 137,60.761 137,135.2 v 15 c 0,16.542 -13.458,30 -30,30 -16.542,0 -30,-13.458 -30,-30 0,-7.43 0,-67.164 0,-75 0,-8.284 -6.716,-15 -15,-15 -8.284,0 -15,6.716 -15,15 v 0.951 C 288.454,185.622 272.068,180 255,180 c -41.355,0 -75,33.645 -75,75 0,41.355 33.645,75 75,75 22.423,0 43.059,-9.622 57.735,-25.812 C 323.583,319.772 341.615,330 362,330 c 33.084,0 60,-26.916 60,-60 V 255 C 422,163.746 346.21,90 255,90 Z m 0,210.2 c -24.813,0 -45,-20.387 -45,-45.2 0,-24.813 20.187,-45.2 45,-45.2 25.477,0 47,20.807 47,45.2 0,24.393 -21.523,45.2 -47,45.2 z"
             id="path10776" />
        </g>
      </g>
      <g
         style="fill:#cccccc"
         id="g10782" />
      <g
         style="fill:#cccccc"
         id="g10784" />
      <g
         style="fill:#cccccc"
         id="g10786" />
      <g
         style="fill:#cccccc"
         id="g10788" />
      <g
         style="fill:#cccccc"
         id="g10790" />
      <g
         style="fill:#cccccc"
         id="g10792" />
      <g
         style="fill:#cccccc"
         id="g10794" />
      <g
         style="fill:#cccccc"
         id="g10796" />
      <g
         style="fill:#cccccc"
         id="g10798" />
      <g
         style="fill:#cccccc"
         id="g10800" />
      <g
         style="fill:#cccccc"
         id="g10802" />
      <g
         style="fill:#cccccc"
         id="g10804" />
      <g
         style="fill:#cccccc"
         id="g10806" />
      <g
         style="fill:#cccccc"
         id="g10808" />
      <g
         style="fill:#cccccc"
         id="g10810" />
    </g>
  </g>
</svg>
