<?xml version="1.0" encoding="UTF-8" standalone="no"?>
<!-- Created with Inkscape (http://www.inkscape.org/) -->

<svg
   xmlns:dc="http://purl.org/dc/elements/1.1/"
   xmlns:cc="http://creativecommons.org/ns#"
   xmlns:rdf="http://www.w3.org/1999/02/22-rdf-syntax-ns#"
   xmlns:svg="http://www.w3.org/2000/svg"
   xmlns="http://www.w3.org/2000/svg"
   xmlns:sodipodi="http://sodipodi.sourceforge.net/DTD/sodipodi-0.dtd"
   xmlns:inkscape="http://www.inkscape.org/namespaces/inkscape"
   width="20"
   height="20"
   viewBox="0 0 5.2916665 5.2916665"
   version="1.1"
   id="svg8"
   inkscape:version="0.92.2 (5c3e80d, 2017-08-06)"
   sodipodi:docname="phone 20px.svg">
  <defs
     id="defs2" />
  <sodipodi:namedview
     id="base"
     pagecolor="#ffffff"
     bordercolor="#666666"
     borderopacity="1.0"
     inkscape:pageopacity="0.0"
     inkscape:pageshadow="2"
     inkscape:zoom="7.9195959"
     inkscape:cx="74.829819"
     inkscape:cy="8.9543884"
     inkscape:document-units="mm"
     inkscape:current-layer="layer1"
     showgrid="false"
     units="px"
     inkscape:window-width="2560"
     inkscape:window-height="1017"
     inkscape:window-x="-8"
     inkscape:window-y="73"
     inkscape:window-maximized="1" />
  <metadata
     id="metadata5">
    <rdf:RDF>
      <cc:Work
         rdf:about="">
        <dc:format>image/svg+xml</dc:format>
        <dc:type
           rdf:resource="http://purl.org/dc/dcmitype/StillImage" />
        <dc:title></dc:title>
      </cc:Work>
    </rdf:RDF>
  </metadata>
  <g
     inkscape:label="Layer 1"
     inkscape:groupmode="layer"
     id="layer1"
     transform="translate(0,-291.70832)">
    <g
       transform="matrix(0.66508344,0,0,0.66508344,0.46933806,98.98217)"
       id="g10528"
       inkscape:label="Layer 1"
       style="fill:#cccccc">
      <g
         transform="matrix(0.11707034,0,0,0.11707034,-8.8315513,272.75124)"
         inkscape:label="Layer 1"
         id="g10526"
         style="fill:#cccccc">
        <g
           id="g10524"
           transform="matrix(0.26458333,0,0,0.26458333,140.59327,203.46543)"
           style="fill:#cccccc">
          <g
             id="g10492"
             style="fill:#cccccc">
            <g
               id="g10490"
               transform="translate(-245.75757,-198.0083)"
               style="fill:#cccccc">
              <g
                 id="g10458"
                 style="fill:#cccccc">
                <path
                   id="path10452"
                   d="M 180.948,27.722 C 163.07,9.844 139.299,-0.001 114.017,0 c -4.143,0 -7.5,3.358 -7.5,7.5 0,4.142 3.358,7.5 7.5,7.5 21.276,-10e-4 41.279,8.284 56.324,23.329 15.046,15.045 23.331,35.049 23.33,56.326 0,4.142 3.357,7.5 7.5,7.5 4.142,0 7.5,-3.358 7.5,-7.499 0.001,-25.285 -9.844,-49.056 -27.723,-66.934 z"
                   inkscape:connector-curvature="0"
                   style="fill:#cccccc" />
                <path
                   id="path10454"
                   d="m 150.096,94.656 c 0,4.142 3.358,7.5 7.501,7.499 4.142,0 7.499,-3.358 7.499,-7.5 -0.002,-28.16 -22.916,-51.073 -51.078,-51.077 -0.001,0 0,0 -0.001,0 -4.142,0 -7.499,3.357 -7.5,7.499 0,4.142 3.357,7.5 7.499,7.501 19.893,0.003 36.078,16.187 36.08,36.078 z"
                   inkscape:connector-curvature="0"
                   style="fill:#cccccc" />
                <path
                   id="path10456"
                   d="m 133.5,132.896 c -11.432,-0.592 -17.256,7.91 -20.049,11.994 -2.339,3.419 -1.463,8.086 1.956,10.425 3.419,2.339 8.086,1.463 10.425,-1.956 3.3,-4.825 4.795,-5.584 6.823,-5.488 6.491,0.763 32.056,19.497 34.616,25.355 0.642,1.725 0.618,3.416 -0.071,5.473 -2.684,7.966 -7.127,13.564 -12.851,16.188 -5.438,2.493 -12.105,2.267 -19.276,-0.651 C 108.296,183.322 84.902,168.091 65.542,148.965 65.534,148.957 65.526,148.95 65.519,148.942 46.433,129.601 31.23,106.237 20.334,79.501 17.415,72.324 17.189,65.656 19.682,60.219 c 2.624,-5.724 8.222,-10.167 16.181,-12.848 2.064,-0.692 3.752,-0.714 5.461,-0.078 5.879,2.569 24.612,28.133 25.368,34.551 0.108,2.104 -0.657,3.598 -5.478,6.892 -3.42,2.336 -4.299,7.003 -1.962,10.423 2.336,3.42 7.002,4.298 10.423,1.962 4.086,-2.79 12.586,-8.598 11.996,-20.069 C 81.021,69.07 57.713,37.339 46.576,33.244 41.623,31.398 36.413,31.366 31.085,33.154 19.097,37.191 10.439,44.389 6.047,53.969 c -4.26,9.294 -4.125,20.077 0.395,31.189 11.661,28.612 27.976,53.647 48.491,74.412 0.05,0.051 0.101,0.101 0.153,0.15 20.75,20.477 45.756,36.762 74.33,48.409 5.722,2.327 11.357,3.492 16.746,3.492 5.074,0 9.932,-1.032 14.438,-3.098 9.581,-4.391 16.778,-13.048 20.818,-25.044 1.784,-5.318 1.755,-10.526 -0.077,-15.456 -4.109,-11.167 -35.84,-34.475 -47.841,-35.127 z"
                   inkscape:connector-curvature="0"
                   style="fill:#cccccc" />
              </g>
              <g
                 id="g10460"
                 style="fill:#cccccc" />
              <g
                 id="g10462"
                 style="fill:#cccccc" />
              <g
                 id="g10464"
                 style="fill:#cccccc" />
              <g
                 id="g10466"
                 style="fill:#cccccc" />
              <g
                 id="g10468"
                 style="fill:#cccccc" />
              <g
                 id="g10470"
                 style="fill:#cccccc" />
              <g
                 id="g10472"
                 style="fill:#cccccc" />
              <g
                 id="g10474"
                 style="fill:#cccccc" />
              <g
                 id="g10476"
                 style="fill:#cccccc" />
              <g
                 id="g10478"
                 style="fill:#cccccc" />
              <g
                 id="g10480"
                 style="fill:#cccccc" />
              <g
                 id="g10482"
                 style="fill:#cccccc" />
              <g
                 id="g10484"
                 style="fill:#cccccc" />
              <g
                 id="g10486"
                 style="fill:#cccccc" />
              <g
                 id="g10488"
                 style="fill:#cccccc" />
            </g>
          </g>
          <g
             id="g10494"
             style="fill:#cccccc" />
          <g
             id="g10496"
             style="fill:#cccccc" />
          <g
             id="g10498"
             style="fill:#cccccc" />
          <g
             id="g10500"
             style="fill:#cccccc" />
          <g
             id="g10502"
             style="fill:#cccccc" />
          <g
             id="g10504"
             style="fill:#cccccc" />
          <g
             id="g10506"
             style="fill:#cccccc" />
          <g
             id="g10508"
             style="fill:#cccccc" />
          <g
             id="g10510"
             style="fill:#cccccc" />
          <g
             id="g10512"
             style="fill:#cccccc" />
          <g
             id="g10514"
             style="fill:#cccccc" />
          <g
             id="g10516"
             style="fill:#cccccc" />
          <g
             id="g10518"
             style="fill:#cccccc" />
          <g
             id="g10520"
             style="fill:#cccccc" />
          <g
             id="g10522"
             style="fill:#cccccc" />
        </g>
      </g>
    </g>
  </g>
</svg>
