<?xml version="1.0" encoding="UTF-8" standalone="no"?>
<!-- Created with Inkscape (http://www.inkscape.org/) -->

<svg
   xmlns:dc="http://purl.org/dc/elements/1.1/"
   xmlns:cc="http://creativecommons.org/ns#"
   xmlns:rdf="http://www.w3.org/1999/02/22-rdf-syntax-ns#"
   xmlns:svg="http://www.w3.org/2000/svg"
   xmlns="http://www.w3.org/2000/svg"
   xmlns:sodipodi="http://sodipodi.sourceforge.net/DTD/sodipodi-0.dtd"
   xmlns:inkscape="http://www.inkscape.org/namespaces/inkscape"
   width="100"
   height="100"
   viewBox="0 0 26.458333 26.458334"
   version="1.1"
   id="svg8"
   inkscape:version="0.92.2 (5c3e80d, 2017-08-06)"
   sodipodi:docname="rysunek-1.svg">
  <defs
     id="defs2" />
  <sodipodi:namedview
     id="base"
     pagecolor="#ffffff"
     bordercolor="#666666"
     borderopacity="1.0"
     inkscape:pageopacity="0.0"
     inkscape:pageshadow="2"
     inkscape:zoom="0.98994949"
     inkscape:cx="-124.72946"
     inkscape:cy="162.74541"
     inkscape:document-units="mm"
     inkscape:current-layer="layer1"
     showgrid="false"
     units="px"
     inkscape:window-width="2560"
     inkscape:window-height="1017"
     inkscape:window-x="-8"
     inkscape:window-y="73"
     inkscape:window-maximized="1" />
  <metadata
     id="metadata5">
    <rdf:RDF>
      <cc:Work
         rdf:about="">
        <dc:format>image/svg+xml</dc:format>
        <dc:type
           rdf:resource="http://purl.org/dc/dcmitype/StillImage" />
        <dc:title></dc:title>
      </cc:Work>
    </rdf:RDF>
  </metadata>
  <g
     inkscape:label="Layer 1"
     inkscape:groupmode="layer"
     id="layer1"
     transform="translate(0,-270.54165)">
    <g
       id="g1641"
       transform="matrix(0.05054191,0,0,0.05054191,0.40622715,281.65404)">
      <path
         style="opacity:0.56199999;fill:#000000;fill-opacity:1;stroke:none;stroke-width:0.13140206;stroke-linecap:round;stroke-linejoin:round;stroke-miterlimit:4;stroke-dasharray:none;stroke-opacity:1"
         d="M 513.90402,39.69159 A 256.26785,256.26785 0 0 1 257.63617,295.95939 256.26785,256.26785 0 0 1 1.3683,39.69159 256.26785,256.26785 0 0 1 257.63617,-216.57627 256.26785,256.26785 0 0 1 513.90402,39.69159 Z"
         id="path986"
         inkscape:connector-curvature="0" />
      <path
         inkscape:connector-curvature="0"
         id="ellipse4337"
         d="m 301.52818,24.169499 a 43.892023,36.884385 0 0 1 -43.89202,36.884386 43.892023,36.884385 0 0 1 -43.89202,-36.884386 43.892023,36.884385 0 0 1 43.89202,-36.884386 43.892023,36.884385 0 0 1 43.89202,36.884386 z"
         style="opacity:1;fill:none;fill-opacity:1;stroke:#cccccc;stroke-width:2.54393983;stroke-linecap:round;stroke-linejoin:round;stroke-miterlimit:4;stroke-dasharray:none;stroke-opacity:1" />
      <path
         sodipodi:nodetypes="cccsscccsssss"
         inkscape:connector-curvature="0"
         d="m 178.77931,-40.330898 c 0,0 -4.27679,-3.833289 -6.22054,-8.795208 -1.94372,-4.961918 -2.14541,-11.047795 -1.65425,-14.645727 1.04275,-7.6384 5.96151,-13.88515 11.92716,-18.319328 5.96564,-4.434177 13.73014,-7.813233 21.82327,-6.386821 3.71225,0.654282 9.6407,2.181886 14.1332,5.942474 4.49251,3.760587 7.27803,9.788002 7.27803,9.788002 l 0.15073,0.334962 m 121.01697,67.0195259 c 0,39.2550301 -40.11427,71.0775181 -89.59772,71.0775171 -49.48346,10e-7 -89.59772,-31.822487 -89.59772,-71.0775171 0,-39.2550299 40.11426,-71.0775179 89.59772,-71.0775169 49.48345,-10e-7 89.59772,31.822487 89.59772,71.0775169 z"
         style="fill:none;stroke:#cccccc;stroke-width:2.54393983;stroke-linecap:butt;stroke-linejoin:miter;stroke-miterlimit:4;stroke-dasharray:none;stroke-opacity:1"
         id="path4339" />
      <path
         style="fill:none;stroke:#cccccc;stroke-width:2.54393983;stroke-linecap:butt;stroke-linejoin:miter;stroke-miterlimit:4;stroke-dasharray:none;stroke-opacity:1"
         d="m 336.77949,-40.330898 c 0,0 0.0323,-0.03202 0.0197,-0.01903 -1.03357,1.064248 4.0711,-4.017067 5.9354,-8.776183 1.94375,-4.961909 2.14542,-11.047795 1.65425,-14.645727 -1.04275,-7.6384 -5.9615,-13.88515 -11.92715,-18.319328 -5.96564,-4.434177 -13.73014,-7.813233 -21.82327,-6.386821 -3.71225,0.654282 -9.6407,2.181886 -14.1332,5.942474 -4.49251,3.760587 -7.27803,9.788002 -7.27803,9.788002 l -0.0442,0.110606"
         id="path4341"
         inkscape:connector-curvature="0"
         sodipodi:nodetypes="cssszszcc" />
      <path
         inkscape:connector-curvature="0"
         id="ellipse4343"
         d="M 208.5843,8.6382135 A 9.2552556,13.897252 0 0 1 199.32905,22.535465 9.2552556,13.897252 0 0 1 190.07379,8.6382135 9.2552556,13.897252 0 0 1 199.32905,-5.2590368 9.2552556,13.897252 0 0 1 208.5843,8.6382135 Z"
         style="opacity:1;fill:#cccccc;fill-opacity:1;stroke:none;stroke-width:0.34172073;stroke-linecap:round;stroke-linejoin:round;stroke-miterlimit:4;stroke-dasharray:none;stroke-opacity:1" />
      <path
         inkscape:connector-curvature="0"
         id="ellipse4345"
         d="m 324.71092,8.6382135 a 9.2552556,13.897252 0 0 1 -9.25525,13.8972515 9.2552556,13.897252 0 0 1 -9.25525,-13.8972515 9.2552556,13.897252 0 0 1 9.25525,-13.8972503 9.2552556,13.897252 0 0 1 9.25525,13.8972503 z"
         style="opacity:1;fill:#cccccc;fill-opacity:1;stroke:none;stroke-width:0.34172073;stroke-linecap:round;stroke-linejoin:round;stroke-miterlimit:4;stroke-dasharray:none;stroke-opacity:1" />
      <path
         inkscape:connector-curvature="0"
         id="ellipse4347"
         d="m 267.1716,-3.8951117 a 9.5354399,7.0751548 0 0 1 -9.53544,7.0751547 9.5354399,7.0751548 0 0 1 -9.53545,-7.0751547 9.5354399,7.0751548 0 0 1 9.53545,-7.0751543 9.5354399,7.0751548 0 0 1 9.53544,7.0751543 z"
         style="opacity:1;fill:#cccccc;fill-opacity:1;stroke:none;stroke-width:1.41632998;stroke-linecap:round;stroke-linejoin:round;stroke-miterlimit:4;stroke-dasharray:none;stroke-opacity:1" />
      <path
         sodipodi:nodetypes="czszszcc"
         inkscape:connector-curvature="0"
         id="path4349"
         d="m 185.35965,-48.216785 c 0,0 -3.19535,-2.693453 -4.48611,-5.988444 -1.29075,-3.295005 -1.42468,-7.33636 -1.09852,-9.725597 0.69245,-5.072333 3.95879,-9.220517 7.92031,-12.165065 3.96152,-2.944548 9.1176,-5.188432 14.49189,-4.241215 2.46514,0.434482 6.40196,1.448893 9.38525,3.946139 2.98327,2.497246 4.92151,7.29615 4.92151,7.29615 l -16.45819,9.11394"
         style="fill:#cccccc;fill-opacity:1;stroke:none;stroke-width:1.07395315;stroke-linecap:butt;stroke-linejoin:miter;stroke-miterlimit:4;stroke-dasharray:none;stroke-opacity:1" />
      <path
         style="fill:#cccccc;fill-opacity:1;stroke:none;stroke-width:1.07395315;stroke-linecap:butt;stroke-linejoin:miter;stroke-miterlimit:4;stroke-dasharray:none;stroke-opacity:1"
         d="m 329.68229,-48.216785 c 0,0 3.19536,-2.693453 4.48612,-5.988444 1.29075,-3.295005 1.42467,-7.33636 1.09851,-9.725597 -0.69245,-5.072333 -3.95878,-9.220517 -7.92031,-12.165065 -3.96151,-2.944548 -9.11759,-5.188432 -14.49189,-4.241215 -2.46513,0.434482 -6.40196,1.448893 -9.38524,3.946139 -2.98327,2.497246 -4.92151,7.29615 -4.92151,7.29615 l 16.45819,9.11394"
         id="path4351"
         inkscape:connector-curvature="0"
         sodipodi:nodetypes="czszszcc" />
      <path
         inkscape:connector-curvature="0"
         id="path4353"
         d="m 257.82209,-76.565355 v 63.819599"
         style="fill:#f9f9f9;stroke:#cccccc;stroke-width:1.61694443;stroke-linecap:butt;stroke-linejoin:miter;stroke-miterlimit:4;stroke-dasharray:6.46777771, 3.23388885, 1.61694443, 3.23388885;stroke-dashoffset:0;stroke-opacity:1" />
      <path
         inkscape:connector-curvature="0"
         id="path1316"
         style="font-style:normal;font-variant:normal;font-weight:normal;font-stretch:normal;font-size:medium;line-height:1.25;font-family:sans-serif;-inkscape-font-specification:sans-serif;letter-spacing:0px;word-spacing:0px;fill:#cccccc;fill-opacity:1;stroke:none;stroke-width:1.57525671"
         d="m 123.49319,92.05102 h -16.36791 v 40.39671 h -6.09181 V 92.05102 H 84.665564 v -5.414944 h 38.827626 z" />
      <path
         inkscape:connector-curvature="0"
         id="path1318"
         style="font-style:normal;font-variant:normal;font-weight:normal;font-stretch:normal;font-size:medium;line-height:1.25;font-family:sans-serif;-inkscape-font-specification:sans-serif;letter-spacing:0px;word-spacing:0px;fill:#cccccc;fill-opacity:1;stroke:none;stroke-width:1.57525671"
         d="M 159.89022,132.44773 H 129.70807 V 86.636076 h 30.18215 v 5.414944 h -24.09035 v 12.55282 h 24.09035 v 5.41495 h -24.09035 v 17.014 h 24.09035 z" />
      <path
         inkscape:connector-curvature="0"
         id="path1320"
         style="font-style:normal;font-variant:normal;font-weight:normal;font-stretch:normal;font-size:medium;line-height:1.25;font-family:sans-serif;-inkscape-font-specification:sans-serif;letter-spacing:0px;word-spacing:0px;fill:#cccccc;fill-opacity:1;stroke:none;stroke-width:1.57525671"
         d="m 208.2863,109.58806 q 0,6.24563 -2.73825,11.32215 -2.70747,5.07651 -7.23018,7.87628 -3.1382,1.93831 -7.01482,2.79978 -3.84584,0.86146 -10.15301,0.86146 h -11.5683 V 86.636076 h 11.44523 q 6.70715,0 10.64529,0.984523 3.9689,0.953769 6.70715,2.645948 4.67653,2.922844 7.29171,7.78398 2.61518,4.861153 2.61518,11.537533 z m -6.36872,-0.0924 q 0,-5.38417 -1.87678,-9.07618 -1.87677,-3.69201 -5.59955,-5.814905 -2.70747,-1.538346 -5.75336,-2.122909 -3.04591,-0.615332 -7.29173,-0.615332 h -5.72261 V 127.2173 h 5.72261 q 4.39965,0 7.66092,-0.6461 3.29205,-0.6461 6.03028,-2.3998 3.41511,-2.18444 5.10727,-5.75338 1.72295,-3.56894 1.72295,-8.92236 z" />
      <path
         inkscape:connector-curvature="0"
         id="path1322"
         style="font-style:normal;font-variant:normal;font-weight:normal;font-stretch:normal;font-size:medium;line-height:1.25;font-family:sans-serif;-inkscape-font-specification:sans-serif;letter-spacing:0px;word-spacing:0px;fill:#cccccc;fill-opacity:1;stroke:none;stroke-width:1.57525671"
         d="m 276.46536,132.44773 h -6.49178 l -4.49195,-12.7682 h -19.81376 l -4.49195,12.7682 h -6.18411 l 16.67556,-45.811654 h 8.12242 z m -12.8605,-17.99854 -8.03012,-22.490478 -8.06088,22.490478 z" />
      <path
         inkscape:connector-curvature="0"
         id="path1324"
         style="font-style:normal;font-variant:normal;font-weight:normal;font-stretch:normal;font-size:medium;line-height:1.25;font-family:sans-serif;-inkscape-font-specification:sans-serif;letter-spacing:0px;word-spacing:0px;fill:#cccccc;fill-opacity:1;stroke:none;stroke-width:1.57525671"
         d="m 340.95242,129.12492 q -1.69217,0.7384 -3.07667,1.3845 -1.35374,0.6461 -3.56894,1.35375 -1.87677,0.58456 -4.09198,0.98453 -2.18444,0.43073 -4.83037,0.43073 -4.98421,0 -9.07619,-1.38449 -4.06121,-1.41527 -7.07635,-4.39966 -2.9536,-2.92283 -4.61501,-7.41477 -1.6614,-4.52272 -1.6614,-10.49145 0,-5.66109 1.59987,-10.122265 1.59987,-4.461175 4.61501,-7.537853 2.92284,-2.984369 7.04558,-4.55347 4.15351,-1.569101 9.19925,-1.569101 3.69201,0 7.35325,0.89223 3.69201,0.892244 8.18395,3.138216 v 7.230172 h -0.4615 q -3.78431,-3.168971 -7.50708,-4.615008 -3.72278,-1.446038 -7.96859,-1.446038 -3.47664,0 -6.27641,1.138371 -2.769,1.107602 -4.95344,3.476638 -2.12291,2.307512 -3.32281,5.845688 -1.16913,3.50741 -1.16913,8.12242 0,4.83036 1.2922,8.307 1.32297,3.47665 3.38434,5.66109 2.15367,2.27674 5.01498,3.38434 2.89207,1.07683 6.09181,1.07683 4.39964,0 8.24548,-1.50757 3.84584,-1.50757 7.19942,-4.5227 h 0.43073 z" />
      <path
         inkscape:connector-curvature="0"
         id="path1326"
         style="font-style:normal;font-variant:normal;font-weight:normal;font-stretch:normal;font-size:medium;line-height:1.25;font-family:sans-serif;-inkscape-font-specification:sans-serif;letter-spacing:0px;word-spacing:0px;fill:#cccccc;fill-opacity:1;stroke:none;stroke-width:1.57525671"
         d="M 385.74878,132.44773 H 379.257 l -4.49194,-12.7682 h -19.81378 l -4.49194,12.7682 h -6.18411 L 360.9508,86.636076 h 8.12241 z m -12.86049,-17.99854 -8.03012,-22.490478 -8.06088,22.490478 z" />
      <path
         inkscape:connector-curvature="0"
         id="path1328"
         style="font-style:normal;font-variant:normal;font-weight:normal;font-stretch:normal;font-size:medium;line-height:1.25;font-family:sans-serif;-inkscape-font-specification:sans-serif;letter-spacing:0px;word-spacing:0px;fill:#cccccc;fill-opacity:1;stroke:none;stroke-width:1.57525671"
         d="m 430.60668,132.44773 h -7.90705 L 407.3778,114.23382 h -8.58392 v 18.21391 h -6.09181 V 86.636076 h 12.82972 q 4.15351,0 6.92252,0.553794 2.769,0.523038 4.98421,1.907536 2.4921,1.569101 3.87661,3.968907 1.41527,2.369036 1.41527,6.030277 0,4.95344 -2.49211,8.30702 -2.4921,3.3228 -6.86098,5.01498 z m -14.245,-32.920396 q 0,-1.969076 -0.70763,-3.476637 -0.67687,-1.538346 -2.27674,-2.584409 -1.32297,-0.892244 -3.13821,-1.230665 -1.81523,-0.369205 -4.27657,-0.369205 h -7.16865 v 17.290892 h 6.15335 q 2.89207,0 5.04574,-0.49227 2.15367,-0.52302 3.66124,-1.90753 1.3845,-1.29221 2.0306,-2.9536 0.67687,-1.69217 0.67687,-4.276576 z" />
      <path
         inkscape:connector-curvature="0"
         id="path1331"
         style="font-style:normal;font-variant:normal;font-weight:normal;font-stretch:normal;font-size:medium;line-height:1.25;font-family:sans-serif;-inkscape-font-specification:sans-serif;letter-spacing:0px;word-spacing:0px;fill:#cccccc;fill-opacity:1;stroke:none;stroke-width:0.82361138"
         d="m 144.40565,169.03142 h -3.39416 l -2.34859,-6.67577 h -10.35949 l -2.34857,6.67577 h -3.23333 l 8.71871,-23.9523 h 4.24674 z m -6.724,-9.4104 -4.19849,-11.75899 -4.21458,11.75899 z" />
      <path
         inkscape:connector-curvature="0"
         id="path1333"
         style="font-style:normal;font-variant:normal;font-weight:normal;font-stretch:normal;font-size:medium;line-height:1.25;font-family:sans-serif;-inkscape-font-specification:sans-serif;letter-spacing:0px;word-spacing:0px;fill:#cccccc;fill-opacity:1;stroke:none;stroke-width:0.82361138"
         d="m 156.48636,169.03142 h -9.45865 v -2.44511 h 3.13679 v -19.06208 h -3.13679 v -2.44511 h 9.45865 v 2.44511 h -3.13679 v 19.06208 h 3.13679 z" />
      <path
         inkscape:connector-curvature="0"
         id="path1335"
         style="font-style:normal;font-variant:normal;font-weight:normal;font-stretch:normal;font-size:medium;line-height:1.25;font-family:sans-serif;-inkscape-font-specification:sans-serif;letter-spacing:0px;word-spacing:0px;fill:#cccccc;fill-opacity:1;stroke:none;stroke-width:0.82361138"
         d="m 181.75772,169.03142 h -4.13415 l -8.0109,-9.52301 h -4.48803 v 9.52301 h -3.18507 v -23.9523 h 6.70792 q 2.17164,0 3.61939,0.28955 1.44776,0.27347 2.60596,0.99735 1.30298,0.82039 2.02686,2.07511 0.73997,1.23864 0.73997,3.15289 0,2.58987 -1.30298,4.34326 -1.30298,1.73731 -3.58721,2.62205 z m -7.44789,-17.21219 q 0,-1.02952 -0.36999,-1.81774 -0.35388,-0.8043 -1.19036,-1.35123 -0.69171,-0.4665 -1.6408,-0.64345 -0.94908,-0.19304 -2.23598,-0.19304 h -3.74806 v 9.04042 h 3.21723 q 1.51209,0 2.63813,-0.25737 1.12603,-0.27347 1.91425,-0.99735 0.72387,-0.67561 1.06167,-1.54427 0.35391,-0.88474 0.35391,-2.23597 z" />
      <path
         inkscape:connector-curvature="0"
         id="path1337"
         style="font-style:normal;font-variant:normal;font-weight:normal;font-stretch:normal;font-size:medium;line-height:1.25;font-family:sans-serif;-inkscape-font-specification:sans-serif;letter-spacing:0px;word-spacing:0px;fill:#cccccc;fill-opacity:1;stroke:none;stroke-width:0.82361138"
         d="m 211.72623,147.91029 h -12.11288 v 6.75618 h 10.40775 v 2.83117 h -10.40775 v 11.53378 h -3.18506 v -23.9523 h 15.29794 z" />
      <path
         inkscape:connector-curvature="0"
         id="path1339"
         style="font-style:normal;font-variant:normal;font-weight:normal;font-stretch:normal;font-size:medium;line-height:1.25;font-family:sans-serif;-inkscape-font-specification:sans-serif;letter-spacing:0px;word-spacing:0px;fill:#cccccc;fill-opacity:1;stroke:none;stroke-width:0.82361138"
         d="m 235.16376,169.03142 h -4.13414 l -8.01091,-9.52301 h -4.48803 v 9.52301 h -3.18506 v -23.9523 h 6.70792 q 2.17164,0 3.61939,0.28955 1.44775,0.27347 2.60596,0.99735 1.30298,0.82039 2.02686,2.07511 0.73996,1.23864 0.73996,3.15289 0,2.58987 -1.30297,4.34326 -1.30298,1.73731 -3.58722,2.62205 z m -7.44789,-17.21219 q 0,-1.02952 -0.36998,-1.81774 -0.35389,-0.8043 -1.19037,-1.35123 -0.6917,-0.4665 -1.6408,-0.64345 -0.94907,-0.19304 -2.23597,-0.19304 h -3.74807 v 9.04042 h 3.21723 q 1.51209,0 2.63814,-0.25737 1.12602,-0.27347 1.91425,-0.99735 0.72387,-0.67561 1.06169,-1.54427 0.35388,-0.88474 0.35388,-2.23597 z" />
      <path
         inkscape:connector-curvature="0"
         id="path1341"
         style="font-style:normal;font-variant:normal;font-weight:normal;font-stretch:normal;font-size:medium;line-height:1.25;font-family:sans-serif;-inkscape-font-specification:sans-serif;letter-spacing:0px;word-spacing:0px;fill:#cccccc;fill-opacity:1;stroke:none;stroke-width:0.82361138"
         d="m 254.03283,169.03142 h -15.78052 v -23.9523 h 15.78052 v 2.83117 h -12.59546 v 6.56315 h 12.59546 v 2.83117 h -12.59546 v 8.89564 h 12.59546 z" />
      <path
         inkscape:connector-curvature="0"
         id="path1343"
         style="font-style:normal;font-variant:normal;font-weight:normal;font-stretch:normal;font-size:medium;line-height:1.25;font-family:sans-serif;-inkscape-font-specification:sans-serif;letter-spacing:0px;word-spacing:0px;fill:#cccccc;fill-opacity:1;stroke:none;stroke-width:0.82361138"
         d="m 276.50519,162.1948 q 0,1.39949 -0.65953,2.76681 -0.64345,1.36733 -1.81774,2.31641 -1.28689,1.02951 -3.00811,1.60862 -1.70513,0.5791 -4.11806,0.5791 -2.58987,0 -4.66498,-0.48258 -2.05903,-0.4826 -4.19849,-1.43167 v -3.98937 h 0.2252 q 1.81775,1.5121 4.1985,2.33249 2.38074,0.8204 4.47194,0.8204 2.95986,0 4.60065,-1.10995 1.65687,-1.10995 1.65687,-2.95984 0,-1.59255 -0.78822,-2.34859 -0.77214,-0.75605 -2.36467,-1.17429 -1.20646,-0.32172 -2.62204,-0.53083 -1.3995,-0.20913 -2.97594,-0.53086 -3.18506,-0.67561 -4.72932,-2.30031 -1.52819,-1.6408 -1.52819,-4.26284 0,-3.00811 2.5416,-4.92236 2.54162,-1.93034 6.45056,-1.93034 2.52552,0 4.63281,0.48258 2.10729,0.4826 3.73199,1.19038 v 3.76417 h -0.22521 q -1.36732,-1.15821 -3.6033,-1.91425 -2.21989,-0.77215 -4.55238,-0.77215 -2.5577,0 -4.11806,1.06169 -1.54427,1.06169 -1.54427,2.73464 0,1.49602 0.77215,2.34859 0.77212,0.85256 2.71855,1.30297 1.02951,0.22521 2.92768,0.54694 1.89817,0.32172 3.21723,0.65953 2.6703,0.70779 4.02154,2.13946 1.35124,1.43167 1.35124,4.00545 z" />
      <path
         inkscape:connector-curvature="0"
         id="path1345"
         style="font-style:normal;font-variant:normal;font-weight:normal;font-stretch:normal;font-size:medium;line-height:1.25;font-family:sans-serif;-inkscape-font-specification:sans-serif;letter-spacing:0px;word-spacing:0px;fill:#cccccc;fill-opacity:1;stroke:none;stroke-width:0.82361138"
         d="m 299.94272,169.03142 h -3.18506 v -11.72681 h -11.95202 v 11.72681 h -3.18506 v -23.9523 h 3.18506 v 9.39432 h 11.95202 v -9.39432 h 3.18506 z" />
      <path
         inkscape:connector-curvature="0"
         id="path1347"
         style="font-style:normal;font-variant:normal;font-weight:normal;font-stretch:normal;font-size:medium;line-height:1.25;font-family:sans-serif;-inkscape-font-specification:sans-serif;letter-spacing:0px;word-spacing:0px;fill:#cccccc;fill-opacity:1;stroke:none;stroke-width:0.82361138"
         d="m 322.17379,169.03142 h -15.78052 v -23.9523 h 15.78052 v 2.83117 h -12.59546 v 6.56315 h 12.59546 v 2.83117 h -12.59546 v 8.89564 h 12.59546 z" />
      <path
         inkscape:connector-curvature="0"
         id="path1349"
         style="font-style:normal;font-variant:normal;font-weight:normal;font-stretch:normal;font-size:medium;line-height:1.25;font-family:sans-serif;-inkscape-font-specification:sans-serif;letter-spacing:0px;word-spacing:0px;fill:#cccccc;fill-opacity:1;stroke:none;stroke-width:0.82361138"
         d="m 345.5148,169.03142 h -3.94111 l -11.35683,-21.42677 v 21.42677 h -2.97594 v -23.9523 h 4.93845 l 10.35949,19.56078 v -19.56078 h 2.97594 z" />
      <path
         inkscape:connector-curvature="0"
         id="path1351"
         style="font-style:normal;font-variant:normal;font-weight:normal;font-stretch:normal;font-size:medium;line-height:1.25;font-family:sans-serif;-inkscape-font-specification:sans-serif;letter-spacing:0px;word-spacing:0px;fill:#cccccc;fill-opacity:1;stroke:none;stroke-width:0.82361138"
         d="m 367.66544,169.03142 h -15.78052 v -23.9523 h 15.78052 v 2.83117 h -12.59546 v 6.56315 h 12.59546 v 2.83117 h -12.59546 v 8.89564 h 12.59546 z" />
      <path
         inkscape:connector-curvature="0"
         id="path1353"
         style="font-style:normal;font-variant:normal;font-weight:normal;font-stretch:normal;font-size:medium;line-height:1.25;font-family:sans-serif;-inkscape-font-specification:sans-serif;letter-spacing:0px;word-spacing:0px;fill:#cccccc;fill-opacity:1;stroke:none;stroke-width:0.82361138"
         d="m 392.55073,169.03142 h -4.13414 l -8.01091,-9.52301 h -4.48804 v 9.52301 h -3.18505 v -23.9523 h 6.70792 q 2.17163,0 3.61939,0.28955 1.44775,0.27347 2.60596,0.99735 1.30297,0.82039 2.02685,2.07511 0.73996,1.23864 0.73996,3.15289 0,2.58987 -1.30297,4.34326 -1.30298,1.73731 -3.58722,2.62205 z m -7.44789,-17.21219 q 0,-1.02952 -0.36998,-1.81774 -0.3539,-0.8043 -1.19038,-1.35123 -0.6917,-0.4665 -1.64079,-0.64345 -0.94908,-0.19304 -2.23597,-0.19304 h -3.74808 v 9.04042 h 3.21724 q 1.51209,0 2.63813,-0.25737 1.12603,-0.27347 1.91425,-0.99735 0.72388,-0.67561 1.06168,-1.54427 0.3539,-0.88474 0.3539,-2.23597 z" />
      <path
         style="opacity:1;fill:#ececec;fill-opacity:1;stroke:none;stroke-width:0.74090564;stroke-linecap:butt;stroke-linejoin:round;stroke-miterlimit:4;stroke-dasharray:none;stroke-opacity:1"
         inkscape:transform-center-x="-115.48573"
         inkscape:transform-center-y="-116.2185"
         d="m 264.60871,-177.95093 -10.65704,-5.93648 -10.93198,5.41355 2.35272,-11.96993 -8.52675,-8.72405 12.1111,-1.46135 5.66216,-10.8053 5.13236,11.06677 12.02615,2.04601 -8.93914,8.30098 z"
         id="path14254"
         inkscape:connector-curvature="0" />
      <path
         style="opacity:1;fill:#ececec;fill-opacity:1;stroke:none;stroke-width:0.74090564;stroke-linecap:butt;stroke-linejoin:round;stroke-miterlimit:4;stroke-dasharray:none;stroke-opacity:1"
         inkscape:transform-center-x="-115.48573"
         inkscape:transform-center-y="-116.2185"
         d="m 297.85471,290.81769 -10.65704,-5.93648 -10.93198,5.41354 2.35272,-11.96993 -8.52675,-8.72405 12.1111,-1.46134 5.66216,-10.8053 5.13236,11.06676 12.02615,2.04601 -8.93914,8.30098 z"
         id="path14256"
         inkscape:connector-curvature="0" />
      <path
         style="opacity:1;fill:#ececec;fill-opacity:1;stroke:none;stroke-width:0.74090564;stroke-linecap:butt;stroke-linejoin:round;stroke-miterlimit:4;stroke-dasharray:none;stroke-opacity:1"
         inkscape:transform-center-x="-115.48573"
         inkscape:transform-center-y="-116.2185"
         d="m 169.02646,270.87009 -10.65704,-5.93648 -10.93198,5.41354 2.35272,-11.96993 -8.52675,-8.72405 12.1111,-1.46134 5.66216,-10.8053 5.13236,11.06676 12.02615,2.04601 -8.93914,8.30098 z"
         id="path14258"
         inkscape:connector-curvature="0" />
      <path
         style="opacity:1;fill:#ececec;fill-opacity:1;stroke:none;stroke-width:0.74090564;stroke-linecap:butt;stroke-linejoin:round;stroke-miterlimit:4;stroke-dasharray:none;stroke-opacity:1"
         inkscape:transform-center-x="-115.48573"
         inkscape:transform-center-y="-116.2185"
         d="m 70.119612,184.43049 -10.657045,-5.93648 -10.931972,5.41354 2.352714,-11.96993 -8.526746,-8.72405 12.111101,-1.46134 5.662157,-10.8053 5.132356,11.06676 12.026152,2.04601 -8.939136,8.30098 z"
         id="path14260"
         inkscape:connector-curvature="0" />
      <path
         style="opacity:1;fill:#ececec;fill-opacity:1;stroke:none;stroke-width:0.74090564;stroke-linecap:butt;stroke-linejoin:round;stroke-miterlimit:4;stroke-dasharray:none;stroke-opacity:1"
         inkscape:transform-center-x="-115.48573"
         inkscape:transform-center-y="-116.2185"
         d="M 31.886712,63.082582 21.229667,57.146104 10.297695,62.559646 12.650409,50.589717 4.1236627,41.865665 16.234764,40.404323 l 5.662157,-10.805301 5.132356,11.066766 12.026152,2.046007 -8.939136,8.300983 z"
         id="path14262"
         inkscape:connector-curvature="0" />
      <path
         style="opacity:1;fill:#ececec;fill-opacity:1;stroke:none;stroke-width:0.74090564;stroke-linecap:butt;stroke-linejoin:round;stroke-miterlimit:4;stroke-dasharray:none;stroke-opacity:1"
         inkscape:transform-center-x="-115.48573"
         inkscape:transform-center-y="-116.2185"
         d="m 55.158902,-44.966918 -10.657045,-5.936478 -10.931972,5.413542 2.352714,-11.969929 -8.526746,-8.724052 12.111101,-1.461342 5.662157,-10.805301 5.132356,11.066766 12.026152,2.046007 -8.939136,8.300983 z"
         id="path14264"
         inkscape:connector-curvature="0" />
      <path
         style="opacity:1;fill:#ececec;fill-opacity:1;stroke:none;stroke-width:0.74090564;stroke-linecap:butt;stroke-linejoin:round;stroke-miterlimit:4;stroke-dasharray:none;stroke-opacity:1"
         inkscape:transform-center-x="-115.48573"
         inkscape:transform-center-y="-116.2185"
         d="m 120.81976,-127.25078 -10.65704,-5.93648 -10.931975,5.41355 2.352715,-11.96993 -8.526747,-8.72405 12.111097,-1.46135 5.66216,-10.8053 5.13236,11.06677 12.02615,2.04601 -8.93914,8.30098 z"
         id="path14266"
         inkscape:connector-curvature="0" />
      <path
         style="opacity:1;fill:#ececec;fill-opacity:1;stroke:none;stroke-width:0.74090564;stroke-linecap:butt;stroke-linejoin:round;stroke-miterlimit:4;stroke-dasharray:none;stroke-opacity:1"
         inkscape:transform-center-x="-115.48573"
         inkscape:transform-center-y="-116.2185"
         d="m 472.39623,-56.603018 -10.65705,-5.936478 -10.93197,5.413542 2.35271,-11.969929 -8.52674,-8.724052 12.1111,-1.461342 5.66215,-10.805301 5.13236,11.066766 12.02615,2.046007 -8.93913,8.300983 z"
         id="path14268"
         inkscape:connector-curvature="0" />
      <path
         style="opacity:1;fill:#ececec;fill-opacity:1;stroke:none;stroke-width:0.74090564;stroke-linecap:butt;stroke-linejoin:round;stroke-miterlimit:4;stroke-dasharray:none;stroke-opacity:1"
         inkscape:transform-center-x="-115.48573"
         inkscape:transform-center-y="-116.2185"
         d="m 405.07307,-134.73112 -10.65704,-5.93648 -10.93198,5.41355 2.35272,-11.96993 -8.52675,-8.72405 12.1111,-1.46135 5.66216,-10.8053 5.13236,11.06677 12.02615,2.04601 -8.93914,8.30098 z"
         id="path14270"
         inkscape:connector-curvature="0" />
      <path
         style="opacity:1;fill:#ececec;fill-opacity:1;stroke:none;stroke-width:0.74090564;stroke-linecap:butt;stroke-linejoin:round;stroke-miterlimit:4;stroke-dasharray:none;stroke-opacity:1"
         inkscape:transform-center-x="-115.48573"
         inkscape:transform-center-y="-116.2185"
         d="m 503.97992,48.953022 -10.65704,-5.936478 -10.93198,5.413542 2.35272,-11.969929 -8.52675,-8.724052 12.1111,-1.461342 5.66216,-10.805301 5.13236,11.066766 12.02615,2.046007 -8.93914,8.300983 z"
         id="path14272"
         inkscape:connector-curvature="0" />
      <path
         style="opacity:1;fill:#ececec;fill-opacity:1;stroke:none;stroke-width:0.74090564;stroke-linecap:butt;stroke-linejoin:round;stroke-miterlimit:4;stroke-dasharray:none;stroke-opacity:1"
         inkscape:transform-center-x="-115.48573"
         inkscape:transform-center-y="-116.2185"
         d="m 486.52577,152.01563 -10.65704,-5.93648 -10.93197,5.41355 2.35271,-11.96993 -8.52675,-8.72405 12.11111,-1.46135 5.66215,-10.8053 5.13236,11.06677 12.02615,2.04601 -8.93913,8.30098 z"
         id="path14274"
         inkscape:connector-curvature="0" />
      <path
         style="opacity:1;fill:#ececec;fill-opacity:1;stroke:none;stroke-width:0.74090564;stroke-linecap:butt;stroke-linejoin:round;stroke-miterlimit:4;stroke-dasharray:none;stroke-opacity:1"
         inkscape:transform-center-x="-115.48573"
         inkscape:transform-center-y="-116.2185"
         d="m 410.05997,244.27329 -10.65704,-5.93648 -10.93198,5.41354 2.35272,-11.96993 -8.52675,-8.72405 12.1111,-1.46134 5.66216,-10.8053 5.13236,11.06676 12.02615,2.04601 -8.93914,8.30098 z"
         id="path14276"
         inkscape:connector-curvature="0" />
    </g>
  </g>
</svg>
