<?xml version="1.0" encoding="UTF-8" standalone="no"?>
<!-- Created with Inkscape (http://www.inkscape.org/) -->

<svg
   xmlns:dc="http://purl.org/dc/elements/1.1/"
   xmlns:cc="http://creativecommons.org/ns#"
   xmlns:rdf="http://www.w3.org/1999/02/22-rdf-syntax-ns#"
   xmlns:svg="http://www.w3.org/2000/svg"
   xmlns="http://www.w3.org/2000/svg"
   xmlns:sodipodi="http://sodipodi.sourceforge.net/DTD/sodipodi-0.dtd"
   xmlns:inkscape="http://www.inkscape.org/namespaces/inkscape"
   width="279.02899"
   height="246.04601"
   viewBox="0 0 73.826418 65.09967"
   version="1.1"
   id="svg8"
   inkscape:version="0.92.2 (5c3e80d, 2017-08-06)"
   sodipodi:docname="TED EBASOS.svg">
  <defs
     id="defs2" />
  <sodipodi:namedview
     id="base"
     pagecolor="#ffffff"
     bordercolor="#666666"
     borderopacity="1.0"
     inkscape:pageopacity="0.0"
     inkscape:pageshadow="2"
     inkscape:zoom="1.4"
     inkscape:cx="96.940628"
     inkscape:cy="65.426947"
     inkscape:document-units="mm"
     inkscape:current-layer="layer1"
     showgrid="false"
     inkscape:window-width="2560"
     inkscape:window-height="1017"
     inkscape:window-x="-8"
     inkscape:window-y="73"
     inkscape:window-maximized="1"
     units="px" />
  <metadata
     id="metadata5">
    <rdf:RDF>
      <cc:Work
         rdf:about="">
        <dc:format>image/svg+xml</dc:format>
        <dc:type
           rdf:resource="http://purl.org/dc/dcmitype/StillImage" />
        <dc:title></dc:title>
      </cc:Work>
    </rdf:RDF>
  </metadata>
  <g
     inkscape:label="Layer 1"
     inkscape:groupmode="layer"
     id="layer1"
     transform="translate(0,-231.90033)">
    <g
       inkscape:export-ydpi="90"
       inkscape:export-xdpi="90"
       style="opacity:0.08500001"
       id="g16801"
       inkscape:label="Layer 1"
       transform="matrix(0.35956957,0,0,0.36693726,-0.4039804,210.98602)">
      <g
         inkscape:export-ydpi="90"
         inkscape:export-xdpi="90"
         transform="matrix(0.33679235,0,0,0.33679235,45.698662,176.01018)"
         id="g16799"
         style="opacity:1">
        <g
           transform="matrix(2.0020656,0,0,2.0020656,382.19868,441.93345)"
           id="g16797">
          <g
             id="g16795"
             transform="matrix(2.2188031,0,0,2.2188031,-1204.6697,-346.68294)"
             inkscape:export-xdpi="90"
             inkscape:export-ydpi="90">
            <path
               inkscape:connector-curvature="0"
               style="opacity:1;fill:none;fill-opacity:1;stroke:#cccccc;stroke-width:1.921;stroke-linecap:round;stroke-linejoin:round;stroke-miterlimit:4;stroke-dasharray:none;stroke-opacity:1"
               d="M 529.47539,63.977673 A 33.144093,27.85243 0 0 1 496.3313,91.830103 33.144093,27.85243 0 0 1 463.18721,63.977673 33.144093,27.85243 0 0 1 496.3313,36.125242 33.144093,27.85243 0 0 1 529.47539,63.977673 Z"
               id="ellipse16777" />
            <path
               sodipodi:nodetypes="cccsscccsssss"
               inkscape:connector-curvature="0"
               d="m 436.78429,15.271621 c 0,0 -3.22952,-2.894624 -4.6973,-6.6415074 -1.46776,-3.746883 -1.62006,-8.34249903 -1.24917,-11.059398 0.78741,-5.7679693 4.5017,-10.4850646 9.00653,-13.8334366 4.50482,-3.348371 10.36801,-5.89999 16.47936,-4.822867 2.80322,0.494067 7.27996,1.647603 10.67237,4.487328 3.39242,2.839725 5.49585,7.3911942 5.49585,7.3911942 l 0.11382,0.2529394 M 563.98904,41.65419 c 0,29.64257 -30.2914,53.67262 -67.65774,53.672619 -37.36634,10e-7 -67.65774,-24.030049 -67.65774,-53.672619 0,-29.64257 30.2914,-53.67262 67.65774,-53.672619 37.36634,-1e-6 67.65774,24.030049 67.65774,53.672619 z"
               style="fill:none;stroke:#cccccc;stroke-width:1.921;stroke-linecap:butt;stroke-linejoin:miter;stroke-miterlimit:4;stroke-dasharray:none;stroke-opacity:1"
               id="path16779" />
            <path
               style="fill:none;stroke:#cccccc;stroke-width:1.921;stroke-linecap:butt;stroke-linejoin:miter;stroke-miterlimit:4;stroke-dasharray:none;stroke-opacity:1"
               d="m 556.09464,15.271621 c 0,0 0.0244,-0.02418 0.0149,-0.01437 -0.78048,0.803644 3.0742,-3.033399 4.48199,-6.6271404 1.46778,-3.7468763 1.62006,-8.34249903 1.24917,-11.059398 -0.78741,-5.7679693 -4.5017,-10.4850646 -9.00653,-13.8334366 -4.50482,-3.348371 -10.36801,-5.89999 -16.47936,-4.822867 -2.80322,0.494067 -7.27996,1.647603 -10.67237,4.487328 -3.39242,2.839725 -5.49585,7.3911942 -5.49585,7.3911942 l -0.0334,0.083522"
               id="path16781"
               inkscape:connector-curvature="0"
               sodipodi:nodetypes="cssszszcc" />
            <path
               inkscape:connector-curvature="0"
               style="opacity:1;fill:#cccccc;fill-opacity:1;stroke:none;stroke-width:0.25804287;stroke-linecap:round;stroke-linejoin:round;stroke-miterlimit:4;stroke-dasharray:none;stroke-opacity:1"
               d="m 459.29087,52.249565 a 6.9889021,10.494203 0 0 1 -6.9889,10.494203 6.9889021,10.494203 0 0 1 -6.9889,-10.494203 6.9889021,10.494203 0 0 1 6.9889,-10.494202 6.9889021,10.494203 0 0 1 6.9889,10.494202 z"
               id="ellipse16783" />
            <path
               inkscape:connector-curvature="0"
               style="opacity:1;fill:#cccccc;fill-opacity:1;stroke:none;stroke-width:0.25804287;stroke-linecap:round;stroke-linejoin:round;stroke-miterlimit:4;stroke-dasharray:none;stroke-opacity:1"
               d="m 546.98133,52.249565 a 6.9889021,10.494203 0 0 1 -6.9889,10.494203 6.9889021,10.494203 0 0 1 -6.9889,-10.494203 6.9889021,10.494203 0 0 1 6.9889,-10.494202 6.9889021,10.494203 0 0 1 6.9889,10.494202 z"
               id="ellipse16785" />
            <path
               inkscape:connector-curvature="0"
               style="opacity:1;fill:#cccccc;fill-opacity:1;stroke:none;stroke-width:1.06951034;stroke-linecap:round;stroke-linejoin:round;stroke-miterlimit:4;stroke-dasharray:none;stroke-opacity:1"
               d="m 503.53178,42.785301 a 7.2004771,5.3426471 0 0 1 -7.20048,5.342647 7.2004771,5.3426471 0 0 1 -7.20048,-5.342647 7.2004771,5.3426471 0 0 1 7.20048,-5.342647 7.2004771,5.3426471 0 0 1 7.20048,5.342647 z"
               id="ellipse16787" />
            <path
               sodipodi:nodetypes="czszszcc"
               inkscape:connector-curvature="0"
               id="path16789"
               d="m 441.75329,9.316767 c 0,0 -2.4129,-2.0339017 -3.38759,-4.5220417 -0.97468,-2.48815 -1.07581,-5.53988999 -0.82952,-7.34407 0.52289,-3.83026 2.98939,-6.96267 5.98085,-9.1861803 2.99145,-2.22351 6.88495,-3.91793 10.94323,-3.20266 1.86149,0.32809 4.8343,1.0941 7.08706,2.97984 2.25275,1.88574 3.71637,5.5095267 3.71637,5.5095267 l -12.42804,6.88219038"
               style="fill:#cccccc;fill-opacity:1;stroke:none;stroke-width:0.81097203;stroke-linecap:butt;stroke-linejoin:miter;stroke-miterlimit:4;stroke-dasharray:none;stroke-opacity:1" />
            <path
               style="fill:#cccccc;fill-opacity:1;stroke:none;stroke-width:0.81097203;stroke-linecap:butt;stroke-linejoin:miter;stroke-miterlimit:4;stroke-dasharray:none;stroke-opacity:1"
               d="m 550.73535,9.316767 c 0,0 2.4129,-2.0339017 3.38759,-4.5220417 0.97468,-2.48815 1.07581,-5.53988999 0.82952,-7.34407 -0.52289,-3.83026 -2.98939,-6.96267 -5.98085,-9.1861803 -2.99145,-2.22351 -6.88495,-3.91793 -10.94323,-3.20266 -1.86149,0.32809 -4.8343,1.0941 -7.08706,2.97984 -2.25275,1.88574 -3.71637,5.5095267 -3.71637,5.5095267 l 12.42804,6.88219038"
               id="path16791"
               inkscape:connector-curvature="0"
               sodipodi:nodetypes="czszszcc" />
            <path
               inkscape:connector-curvature="0"
               id="path16793"
               d="M 496.4717,-12.09003 V 36.101932"
               style="fill:#f9f9f9;stroke:#cccccc;stroke-width:1.22099996;stroke-linecap:butt;stroke-linejoin:miter;stroke-miterlimit:4;stroke-dasharray:4.88399967, 2.44199983, 1.22099992, 2.44199983;stroke-dashoffset:0;stroke-opacity:1" />
          </g>
        </g>
      </g>
    </g>
  </g>
</svg>
