<?xml version="1.0" encoding="UTF-8" standalone="no"?>
<!-- Created with Inkscape (http://www.inkscape.org/) -->

<svg
   xmlns:dc="http://purl.org/dc/elements/1.1/"
   xmlns:cc="http://creativecommons.org/ns#"
   xmlns:rdf="http://www.w3.org/1999/02/22-rdf-syntax-ns#"
   xmlns:svg="http://www.w3.org/2000/svg"
   xmlns="http://www.w3.org/2000/svg"
   xmlns:sodipodi="http://sodipodi.sourceforge.net/DTD/sodipodi-0.dtd"
   xmlns:inkscape="http://www.inkscape.org/namespaces/inkscape"
   width="43"
   height="43"
   viewBox="0 0 11.377083 11.377083"
   version="1.1"
   id="svg8"
   inkscape:version="0.92.2 (5c3e80d, 2017-08-06)"
   sodipodi:docname="telega 40px.svg">
  <defs
     id="defs2" />
  <sodipodi:namedview
     id="base"
     pagecolor="#ffffff"
     bordercolor="#666666"
     borderopacity="1.0"
     inkscape:pageopacity="0.0"
     inkscape:pageshadow="2"
     inkscape:zoom="7.9195959"
     inkscape:cx="34.423717"
     inkscape:cy="25.525801"
     inkscape:document-units="mm"
     inkscape:current-layer="layer1"
     showgrid="false"
     units="px"
     inkscape:window-width="2560"
     inkscape:window-height="1017"
     inkscape:window-x="-8"
     inkscape:window-y="73"
     inkscape:window-maximized="1" />
  <metadata
     id="metadata5">
    <rdf:RDF>
      <cc:Work
         rdf:about="">
        <dc:format>image/svg+xml</dc:format>
        <dc:type
           rdf:resource="http://purl.org/dc/dcmitype/StillImage" />
        <dc:title></dc:title>
      </cc:Work>
    </rdf:RDF>
  </metadata>
  <g
     inkscape:label="Layer 1"
     inkscape:groupmode="layer"
     id="layer1"
     transform="translate(0,-285.6229)">
    <g
       id="g10574"
       transform="translate(-408.53684,-305.91066)">
      <circle
         r="5.427959"
         cy="597.24603"
         cx="414.28378"
         id="circle10536"
         style="opacity:1;fill:none;fill-opacity:1;stroke:#b3b3b3;stroke-width:0.23965451;stroke-linecap:round;stroke-linejoin:round;stroke-miterlimit:4;stroke-dasharray:none;stroke-opacity:1" />
      <g
         style="fill:#cccccc"
         transform="matrix(0.06364255,0,0,0.06364255,401.60808,598.74301)"
         id="g10572">
        <g
           style="fill:#cccccc"
           id="g10540">
          <path
             inkscape:connector-curvature="0"
             style="fill:#cccccc;stroke-width:3.20324683"
             d="m 240.27628,-62.237628 c -1.39021,-1.816241 -3.546,-2.857296 -5.9164,-2.857296 -1.53115,0 -3.11676,0.426032 -4.71518,1.265282 l -68.05298,35.680966 c -4.8369,2.540175 -5.17324,6.364852 -5.09316,7.889597 0.0769,1.534356 0.81683,5.298171 5.89077,7.313013 l 8.69682,3.4402869 c 1.64967,0.6534623 3.49474,0.9898033 5.48075,0.9898033 0.31392,0 0.61503,-0.041642 0.92574,-0.057659 -0.11852,0.1537558 -0.26266,0.2722759 -0.37158,0.4324383 -1.62084,2.4248579 -1.70092,5.7113891 -0.23383,9.2509768 0.0224,0.060862 0.0449,0.1121136 0.0673,0.1633656 2.57221,5.6985757 5.4327,12.1306951 5.77866,13.0244011 0.85206,2.223053 3.02386,3.754205 5.40708,3.754205 3.67092,0 4.76002,-1.768192 10.76611,-11.5445004 0.46767,-0.717528 1.50873,-2.383216 1.68491,-4.503765 0.70151,0.285089 1.36138,0.547755 1.92515,0.775185 l 9.63536,3.927181 c 1.93156,0.787999 3.62288,1.483103 4.51338,1.851477 0.27548,0.169772 0.56697,0.313918 0.87128,0.438844 0.67909,0.269073 1.40302,0.406813 2.13016,0.406813 4.38204,0 5.43271,-3.795848 5.99648,-5.82991 0.27868,-1.005819 0.66307,-2.3992314 1.07629,-3.93678984 L 241.43585,-54.364047 c 1.10833,-4.077733 -0.25305,-6.681973 -1.15957,-7.873581 z M 194.05343,3.4321351 c 0,0 -5.45193,8.8761959 -5.9164,8.8761959 -0.0128,0 -0.0192,-0.0064 -0.0256,-0.01922 -0.53494,-1.438257 -5.9228,-13.3767575 -5.9228,-13.3767575 -0.99301,-2.3928254 -0.81362,-4.4429033 0.89371,-4.4429033 0.37478,0 0.82323,0.099301 1.34856,0.3171214 l 4.18344,2.1750046 c 0.69831,0.4772838 1.46068,0.8905026 2.29994,1.220437 l 0.21141,0.080081 0.394,0.1986013 c 3.23208,1.71053376 4.26032,2.32876036 2.53377,4.9714396 z M 235.89424,-55.87598 221.20415,-1.8756452 c -0.82964,3.0430844 -1.52155,5.5320073 -1.53436,5.5320073 -0.0128,-0.0064 -0.0288,-0.06407 -0.0288,-0.07368 0,-0.01922 -2.39603,-0.999413 -5.32379,-2.1974271 l -9.64178,-3.9271755 c -2.92776,-1.1852014 -7.72943,-3.1039462 -10.67321,-4.2378956 l -0.4869,-0.195398 -1.80022,-0.9353481 c -1.78421,-1.3677864 -1.94117,-3.6228718 -0.14735,-5.5352108 l 29.82863,-31.939574 c 1.19802,-1.278095 1.64967,-1.937964 1.39021,-1.937964 -0.20501,0 -0.86808,0.426032 -1.9764,1.294112 l -37.74066,29.770976 c -1.64646,1.284502 -4.1482,2.002029 -6.49938,2.002029 -1.20442,0 -2.37361,-0.192195 -3.36982,-0.586194 l -8.69041,-3.437084 c -2.93738,-1.162779 -3.04949,-3.308954 -0.25305,-4.782448 l 68.05938,-35.687372 c 0.7848,-0.410016 1.47349,-0.602211 2.04367,-0.602211 1.46389,0 2.13016,1.281299 1.53436,3.475523 z"
             id="path10538" />
        </g>
        <g
           style="fill:#cccccc"
           id="g10542" />
        <g
           style="fill:#cccccc"
           id="g10544" />
        <g
           style="fill:#cccccc"
           id="g10546" />
        <g
           style="fill:#cccccc"
           id="g10548" />
        <g
           style="fill:#cccccc"
           id="g10550" />
        <g
           style="fill:#cccccc"
           id="g10552" />
        <g
           style="fill:#cccccc"
           id="g10554" />
        <g
           style="fill:#cccccc"
           id="g10556" />
        <g
           style="fill:#cccccc"
           id="g10558" />
        <g
           style="fill:#cccccc"
           id="g10560" />
        <g
           style="fill:#cccccc"
           id="g10562" />
        <g
           style="fill:#cccccc"
           id="g10564" />
        <g
           style="fill:#cccccc"
           id="g10566" />
        <g
           style="fill:#cccccc"
           id="g10568" />
        <g
           style="fill:#cccccc"
           id="g10570" />
      </g>
    </g>
  </g>
</svg>
